<svg width="397" height="38" viewBox="0 0 397 38" fill="none" xmlns="http://www.w3.org/2000/svg">
<mask id="path-1-outside-1_93_1109" maskUnits="userSpaceOnUse" x="-0.16737" y="-0.196346" width="400.099" height="38.4292" fill="black">
<rect fill="white" x="-0.16737" y="-0.196346" width="400.099" height="38.4292"/>
<path d="M1.75559 36.3114L11.6251 2.14015H18.7291L14.4403 16.9892H14.5843L30.6331 2.14015H38.4571L23.7199 15.6058L30.5076 36.3114H22.7316L17.9509 20.9551L11.63 26.7195L8.85959 36.3114H1.75559ZM34.6618 36.3114L44.5313 2.14015H51.6353L41.7658 36.3114H34.6618ZM60.9271 36.957C58.5591 36.957 56.3634 36.5266 54.3401 35.6658C52.3167 34.805 50.6719 33.5753 49.4056 31.9766L54.8441 27.2729C55.7636 28.4104 56.9212 29.3327 58.317 30.0398C59.7537 30.7161 61.24 31.0543 62.776 31.0543C64.632 31.0543 66.1421 30.7008 67.3063 29.9937C68.4705 29.2866 69.2258 28.3335 69.5721 27.1345C69.8207 26.2737 69.7761 25.5974 69.4381 25.1055C69.1411 24.5828 68.6503 24.1217 67.9657 23.722C67.2812 23.3223 66.4686 22.9227 65.528 22.523L61.3967 20.5401C60.3459 20.0789 59.3715 19.464 58.4735 18.6955C57.6164 17.8961 56.993 16.897 56.6033 15.698C56.2456 14.499 56.3064 13.0694 56.7859 11.4093C57.3276 9.53393 58.3395 7.85842 59.8217 6.38274C61.3039 4.90705 63.0974 3.73881 65.202 2.87799C67.3155 1.98643 69.5562 1.54065 71.9242 1.54065C74.0362 1.54065 75.9572 1.92495 77.6873 2.69353C79.4173 3.46211 80.7981 4.5535 81.8296 5.9677L77.0042 10.2103C76.1417 9.31873 75.1735 8.627 74.0996 8.13511C73.0257 7.64322 71.7367 7.39727 70.2327 7.39727C68.6967 7.39727 67.3715 7.72007 66.257 8.36569C65.1834 8.98055 64.4823 9.85674 64.1538 10.9942C63.9229 11.7936 63.988 12.4546 64.3491 12.9772C64.7101 13.4998 65.2489 13.961 65.9655 14.3606C66.691 14.7296 67.492 15.1139 68.3685 15.5135L72.5051 17.312C73.7853 17.8654 74.8335 18.5571 75.6497 19.3872C76.498 20.2173 77.0414 21.2164 77.28 22.3847C77.5506 23.5529 77.4461 24.9671 76.9666 26.6273C76.4339 28.4719 75.413 30.1781 73.9042 31.746C72.4273 33.3139 70.5753 34.5744 68.348 35.5275C66.1528 36.4805 63.6791 36.957 60.9271 36.957ZM86.1553 36.3114L94.3733 7.85842H84.3893L86.0408 2.14015H113.161L111.509 7.85842H101.477L93.2593 36.3114H86.1553ZM109.099 36.3114L118.969 2.14015H140.761L139.109 7.85842H124.421L122.144 15.7441H134.576L132.924 21.4624H120.492L117.855 30.5932H133.071L131.419 36.3114H109.099ZM138.631 36.3114L148.5 2.14015H156.372L157.785 18.1882C157.876 19.2027 157.933 20.2787 157.957 21.4163C157.989 22.523 158.026 23.6144 158.067 24.6904H158.307C159.002 23.6144 159.685 22.523 160.357 21.4163C161.037 20.2787 161.684 19.2027 162.297 18.1882L172.884 2.14015H180.756L170.887 36.3114H164.407L168.522 22.0619C168.842 20.9551 169.241 19.7407 169.718 18.4188C170.196 17.0968 170.69 15.7748 171.2 14.4529C171.751 13.1002 172.241 11.9012 172.671 10.8559H172.479L167.233 18.8799L157.619 33.2217H153.539L152.161 18.8799L151.647 10.8559H151.455C151.281 11.9012 151.063 13.1002 150.8 14.4529C150.546 15.7748 150.276 17.0968 149.99 18.4188C149.737 19.7407 149.45 20.9551 149.13 22.0619L145.015 36.3114H138.631ZM179.552 36.3114L189.422 2.14015H201.086C203.71 2.14015 205.964 2.47833 207.849 3.15468C209.766 3.83104 211.105 4.95317 211.869 6.52108C212.673 8.05825 212.684 10.1795 211.903 12.885C211.157 15.4674 209.916 17.6041 208.179 19.295C206.484 20.9551 204.481 22.1848 202.17 22.9842C199.891 23.7835 197.471 24.1832 194.911 24.1832H190.159L186.656 36.3114H179.552ZM191.718 18.7877H195.99C198.422 18.7877 200.372 18.2958 201.84 17.312C203.34 16.3282 204.374 14.8525 204.943 12.885C205.511 10.9174 205.266 9.54931 204.208 8.78072C203.191 7.98139 201.45 7.58173 198.986 7.58173H194.954L191.718 18.7877ZM237.521 36.957C234.321 36.957 231.62 36.2807 229.419 34.928C227.249 33.5753 225.79 31.5923 225.041 28.9791C224.292 26.3659 224.463 23.1686 225.555 19.3872C226.372 16.5588 227.528 14.0532 229.022 11.8704C230.558 9.65691 232.331 7.78156 234.343 6.24439C236.355 4.70722 238.501 3.53897 240.779 2.73964C243.058 1.94032 245.382 1.54065 247.75 1.54065C250.31 1.54065 252.353 2.0018 253.878 2.92411C255.445 3.81566 256.644 4.81482 257.476 5.92159L252.432 10.2564C251.767 9.45708 250.971 8.78072 250.042 8.22734C249.146 7.67396 247.898 7.39727 246.298 7.39727C244.314 7.39727 242.433 7.87379 240.653 8.82684C238.883 9.74914 237.329 11.0865 235.991 12.8388C234.652 14.5912 233.628 16.6971 232.918 19.1566C232.199 21.6468 231.965 23.7835 232.218 25.5666C232.512 27.319 233.306 28.6717 234.598 29.6247C235.891 30.5778 237.689 31.0543 239.993 31.0543C240.857 31.0543 241.721 30.9467 242.583 30.7315C243.454 30.4855 244.187 30.1627 244.782 29.7631L246.727 23.0303H240.439L242.051 17.4504H254.723L250.274 32.8528C248.729 33.9903 246.834 34.9587 244.587 35.758C242.34 36.5574 239.985 36.957 237.521 36.957ZM256.849 36.3114L266.719 2.14015H279.055C281.583 2.14015 283.762 2.46295 285.591 3.10857C287.43 3.72343 288.719 4.79945 289.459 6.33662C290.208 7.84305 290.205 9.90285 289.45 12.516C288.722 15.037 287.531 17.1122 285.876 18.7416C284.23 20.3402 282.288 21.5239 280.05 22.2924C277.821 23.0303 275.443 23.3992 272.915 23.3992H267.683L263.953 36.3114H256.849ZM269.241 18.0037H273.849C276.153 18.0037 278.03 17.5426 279.481 16.6203C280.963 15.698 281.966 14.3299 282.49 12.516C283.023 10.6714 282.783 9.39559 281.772 8.68849C280.801 7.95065 279.163 7.58173 276.859 7.58173H272.251L269.241 18.0037ZM276.145 36.3114L272.125 21.6468L278.342 17.4042L284.113 36.3114H276.145ZM303.494 36.957C300.358 36.957 297.794 36.2499 295.802 34.8357C293.852 33.3908 292.591 31.331 292.019 28.6563C291.448 25.9816 291.699 22.7843 292.773 19.0644C293.839 15.3752 295.421 12.224 297.52 9.61079C299.619 6.9976 302.052 4.99928 304.819 3.61583C307.619 2.23238 310.587 1.54065 313.723 1.54065C316.891 1.54065 319.455 2.24775 321.414 3.66195C323.382 5.0454 324.661 7.04372 325.251 9.65691C325.849 12.2394 325.615 15.3752 324.549 19.0644C323.475 22.7843 321.88 25.9816 319.763 28.6563C317.647 31.331 315.196 33.3908 312.41 34.8357C309.634 36.2499 306.662 36.957 303.494 36.957ZM305.198 31.0543C306.958 31.0543 308.621 30.5624 310.185 29.5786C311.781 28.5948 313.188 27.2114 314.407 25.4283C315.635 23.6144 316.6 21.4931 317.301 19.0644C318.003 16.6357 318.25 14.5605 318.044 12.8388C317.846 11.0865 317.224 9.74914 316.178 8.82684C315.174 7.87379 313.791 7.39727 312.031 7.39727C310.271 7.39727 308.598 7.87379 307.01 8.82684C305.464 9.74914 304.086 11.0865 302.876 12.8388C301.706 14.5605 300.771 16.6357 300.069 19.0644C299.368 21.4931 299.091 23.6144 299.239 25.4283C299.428 27.2114 300.021 28.5948 301.017 29.5786C302.045 30.5624 303.438 31.0543 305.198 31.0543ZM339.999 36.957C337.791 36.957 335.923 36.665 334.396 36.0808C332.878 35.466 331.697 34.5129 330.854 33.2217C330.043 31.9305 329.626 30.2703 329.604 28.2413C329.582 26.2122 329.98 23.7835 330.797 20.9551L336.231 2.14015H343.287L337.68 21.5546C336.996 23.9218 336.726 25.7972 336.871 27.1806C337.015 28.5641 337.495 29.5632 338.309 30.1781C339.164 30.7622 340.296 31.0543 341.704 31.0543C343.112 31.0543 344.412 30.7622 345.605 30.1781C346.807 29.5632 347.879 28.5641 348.823 27.1806C349.798 25.7972 350.628 23.9218 351.312 21.5546L356.919 2.14015H363.735L358.301 20.9551C357.484 23.7835 356.478 26.2122 355.284 28.2413C354.09 30.2703 352.715 31.9305 351.158 33.2217C349.601 34.5129 347.886 35.466 346.012 36.0808C344.147 36.665 342.143 36.957 339.999 36.957ZM362.412 36.3114L372.281 2.14015H383.945C386.569 2.14015 388.824 2.47833 390.708 3.15468C392.625 3.83104 393.965 4.95317 394.728 6.52108C395.532 8.05825 395.543 10.1795 394.762 12.885C394.016 15.4674 392.775 17.6041 391.039 19.295C389.343 20.9551 387.34 22.1848 385.029 22.9842C382.75 23.7835 380.331 24.1832 377.771 24.1832H373.019L369.516 36.3114H362.412ZM374.577 18.7877H378.849C381.281 18.7877 383.231 18.2958 384.699 17.312C386.199 16.3282 387.234 14.8525 387.802 12.885C388.37 10.9174 388.125 9.54931 387.067 8.78072C386.05 7.98139 384.31 7.58173 381.846 7.58173H377.814L374.577 18.7877Z"/>
</mask>
<path d="M1.75559 36.3114H0.755595L0.478112 37.2722H1.47811L1.75559 36.3114ZM11.6251 2.14015L11.9026 1.17942H10.9026L10.6251 2.14015H11.6251ZM18.7291 2.14015H19.7291L20.0066 1.17942H19.0066L18.7291 2.14015ZM14.4403 16.9892H13.4403L13.1628 17.9499H14.1628L14.4403 16.9892ZM14.5843 16.9892L14.3068 17.9499H14.8025L15.2121 17.5709L14.5843 16.9892ZM30.6331 2.14015L30.9106 1.17942H30.4149L30.0053 1.5584L30.6331 2.14015ZM38.4571 2.14015L39.0781 2.72818L40.7731 1.17942H38.7346L38.4571 2.14015ZM23.7199 15.6058L23.0989 15.0177L22.534 15.5339L22.7181 16.0954L23.7199 15.6058ZM30.5076 36.3114L30.2301 37.2722H31.9849L31.5094 35.8217L30.5076 36.3114ZM22.7316 36.3114L21.7267 36.7913L21.8764 37.2722H22.4541L22.7316 36.3114ZM17.9509 20.9551L18.9558 20.4752L18.57 19.2361L17.331 20.3661L17.9509 20.9551ZM11.63 26.7195L11.0101 26.1305L10.725 26.3904L10.63 26.7195H11.63ZM8.85959 36.3114L8.58211 37.2722H9.58211L9.85959 36.3114H8.85959ZM1.75559 36.3114H2.75559L12.6251 2.14015H11.6251H10.6251L0.755595 36.3114H1.75559ZM11.6251 2.14015L11.3476 3.10088H18.4516L18.7291 2.14015L19.0066 1.17942H11.9026L11.6251 2.14015ZM18.7291 2.14015H17.7291L13.4403 16.9892H14.4403H15.4403L19.7291 2.14015H18.7291ZM14.4403 16.9892L14.1628 17.9499H14.3068L14.5843 16.9892L14.8618 16.0285H14.7178L14.4403 16.9892ZM14.5843 16.9892L15.2121 17.5709L31.2609 2.72189L30.6331 2.14015L30.0053 1.5584L13.9565 16.4075L14.5843 16.9892ZM30.6331 2.14015L30.3556 3.10088H38.1796L38.4571 2.14015L38.7346 1.17942H30.9106L30.6331 2.14015ZM38.4571 2.14015L37.8361 1.55212L23.0989 15.0177L23.7199 15.6058L24.3409 16.1938L39.0781 2.72818L38.4571 2.14015ZM23.7199 15.6058L22.7181 16.0954L29.5058 36.8011L30.5076 36.3114L31.5094 35.8217L24.7217 15.1161L23.7199 15.6058ZM30.5076 36.3114L30.7851 35.3507H23.0091L22.7316 36.3114L22.4541 37.2722H30.2301L30.5076 36.3114ZM22.7316 36.3114L23.7365 35.8315L18.9558 20.4752L17.9509 20.9551L16.946 21.435L21.7267 36.7913L22.7316 36.3114ZM17.9509 20.9551L17.331 20.3661L11.0101 26.1305L11.63 26.7195L12.2499 27.3085L18.5708 21.5441L17.9509 20.9551ZM11.63 26.7195H10.63L7.85959 36.3114H8.85959H9.85959L12.63 26.7195H11.63ZM8.85959 36.3114L9.13708 35.3507H2.03308L1.75559 36.3114L1.47811 37.2722H8.58211L8.85959 36.3114ZM34.6618 36.3114H33.6618L33.3844 37.2722H34.3844L34.6618 36.3114ZM44.5313 2.14015L44.8088 1.17942H43.8088L43.5313 2.14015H44.5313ZM51.6353 2.14015H52.6353L52.9128 1.17942H51.9128L51.6353 2.14015ZM41.7658 36.3114L41.4884 37.2722H42.4884L42.7658 36.3114H41.7658ZM34.6618 36.3114H35.6618L45.5313 2.14015H44.5313H43.5313L33.6618 36.3114H34.6618ZM44.5313 2.14015L44.2539 3.10088H51.3579L51.6353 2.14015L51.9128 1.17942H44.8088L44.5313 2.14015ZM51.6353 2.14015H50.6353L40.7658 36.3114H41.7658H42.7658L52.6353 2.14015H51.6353ZM41.7658 36.3114L42.0433 35.3507H34.9393L34.6618 36.3114L34.3844 37.2722H41.4884L41.7658 36.3114ZM54.3401 35.6658L54.9651 34.7721L54.3401 35.6658ZM49.4056 31.9766L48.815 31.3616L48.0208 32.0484L48.5121 32.6686L49.4056 31.9766ZM54.8441 27.2729L55.7337 26.5759L55.1637 25.8707L54.2536 26.6578L54.8441 27.2729ZM58.317 30.0398L57.647 30.9126L57.6565 30.9174L57.6661 30.9219L58.317 30.0398ZM69.4382 25.1055L68.4898 25.7162L68.5034 25.74L68.5188 25.7625L69.4382 25.1055ZM67.9657 23.722L67.2582 24.5744H67.2582L67.9657 23.722ZM65.528 22.523L64.8721 23.4028L64.8875 23.4102L64.9033 23.4169L65.528 22.523ZM61.3967 20.5401L62.0526 19.6603L62.0413 19.6548L62.0296 19.6497L61.3967 20.5401ZM58.4735 18.6955L57.6456 19.4586L57.6558 19.4681L57.6665 19.4772L58.4735 18.6955ZM56.6033 15.698L55.5959 16.17L55.5983 16.1781L55.6009 16.186L56.6033 15.698ZM59.8217 6.38274L59.1549 5.83845L59.1549 5.83845L59.8217 6.38274ZM65.202 2.87799L65.3869 3.74326L65.401 3.73729L65.202 2.87799ZM77.6873 2.69353L77.0513 3.5825L77.6873 2.69353ZM81.8296 5.9677L82.4294 6.57475L83.186 5.90945L82.7385 5.29587L81.8296 5.9677ZM77.0042 10.2103L76.1526 10.9501L76.7503 11.5679L77.604 10.8173L77.0042 10.2103ZM74.0996 8.13511L73.4558 9.02055L73.4558 9.02055L74.0996 8.13511ZM66.257 8.36569L66.6124 9.14748L66.6188 9.14382L66.257 8.36569ZM64.3491 12.9772L65.2675 12.3187L65.2675 12.3187L64.3491 12.9772ZM65.9655 14.3606L65.2701 15.2199L65.2821 15.2267L65.2945 15.233L65.9655 14.3606ZM68.3685 15.5135L67.7259 16.3995L67.7319 16.4023L67.738 16.4049L68.3685 15.5135ZM72.5051 17.312L71.8746 18.2034L71.8761 18.204L72.5051 17.312ZM75.6497 19.3872L74.8017 20.1308L74.8061 20.1352L74.8105 20.1395L75.6497 19.3872ZM77.28 22.3847L76.2575 22.7959L76.2593 22.8052L76.2615 22.8143L77.28 22.3847ZM73.9042 31.746L73.2153 31.2241L73.2046 31.2354L73.9042 31.746ZM68.348 35.5275L68.1423 34.671L68.1355 34.6739L68.348 35.5275ZM60.9271 36.957L61.2046 35.9963C58.9661 35.9963 56.8877 35.59 54.9651 34.7721L54.3401 35.6658L53.7151 36.5596C55.8392 37.4632 58.1521 37.9178 60.6496 37.9178L60.9271 36.957ZM54.3401 35.6658L54.9651 34.7721C53.048 33.9565 51.4951 32.7945 50.2991 31.2846L49.4056 31.9766L48.5121 32.6686C49.8486 34.356 51.5854 35.6535 53.7151 36.5596L54.3401 35.6658ZM49.4056 31.9766L49.9962 32.5917L55.4347 27.8879L54.8441 27.2729L54.2536 26.6578L48.815 31.3616L49.4056 31.9766ZM54.8441 27.2729L53.9546 27.9698C54.934 29.1815 56.1665 30.1626 57.647 30.9126L58.317 30.0398L58.987 29.167C57.676 28.5028 56.5932 27.6392 55.7337 26.5759L54.8441 27.2729ZM58.317 30.0398L57.6661 30.9219C59.1957 31.642 60.8065 32.015 62.4985 32.015L62.776 31.0543L63.0535 30.0936C61.6734 30.0936 60.3116 29.7902 58.9679 29.1576L58.317 30.0398ZM62.776 31.0543L62.4985 32.015C64.4635 32.015 66.2321 31.6443 67.6945 30.7561L67.3063 29.9937L66.9181 29.2312C66.0521 29.7572 64.8005 30.0936 63.0535 30.0936L62.776 31.0543ZM67.3063 29.9937L67.6945 30.7561C69.169 29.8606 70.1427 28.6213 70.5721 27.1345H69.5721H68.5721C68.3089 28.0458 67.772 28.7126 66.9181 29.2312L67.3063 29.9937ZM69.5721 27.1345H70.5721C70.871 26.0998 70.8489 25.1636 70.3575 24.4484L69.4382 25.1055L68.5188 25.7625C68.7033 26.0311 68.7705 26.4476 68.5721 27.1345H69.5721ZM69.4382 25.1055L70.3865 24.4947C70.0192 23.8486 69.4326 23.3129 68.6733 22.8696L67.9657 23.722L67.2582 24.5744C67.868 24.9304 68.263 25.317 68.4898 25.7162L69.4382 25.1055ZM67.9657 23.722L68.6733 22.8696C67.9566 22.4512 67.1151 22.0381 66.1527 21.6291L65.528 22.523L64.9033 23.4169C65.8221 23.8073 66.6057 24.1935 67.2582 24.5744L67.9657 23.722ZM65.528 22.523L66.1839 21.6432L62.0526 19.6603L61.3967 20.5401L60.7408 21.4198L64.8721 23.4028L65.528 22.523ZM61.3967 20.5401L62.0296 19.6497C61.0481 19.219 60.1313 18.6418 59.2805 17.9137L58.4735 18.6955L57.6665 19.4772C58.6118 20.2863 59.6438 20.9389 60.7639 21.4304L61.3967 20.5401ZM58.4735 18.6955L59.3014 17.9323C58.5294 17.2124 57.9627 16.3086 57.6056 15.2099L56.6033 15.698L55.6009 16.186C56.0232 17.4853 56.7033 18.5799 57.6456 19.4586L58.4735 18.6955ZM56.6033 15.698L57.6106 15.226C57.3039 14.198 57.3444 12.938 57.7859 11.4093H56.7859H55.7859C55.2685 13.2008 55.1872 14.8 55.5959 16.17L56.6033 15.698ZM56.7859 11.4093H57.7859C58.2743 9.71856 59.1751 8.23472 60.4886 6.92702L59.8217 6.38274L59.1549 5.83845C57.504 7.48212 56.3809 9.3493 55.7859 11.4093H56.7859ZM59.8217 6.38274L60.4886 6.92702C61.8183 5.60318 63.4406 4.53923 65.3868 3.74318L65.202 2.87799L65.0171 2.0128C62.7541 2.93838 60.7896 4.21093 59.1549 5.83845L59.8217 6.38274ZM65.202 2.87799L65.401 3.73729C67.3354 2.9213 69.412 2.50139 71.6468 2.50139L71.9242 1.54065L72.2017 0.579924C69.7005 0.579924 67.2956 1.05157 65.003 2.01869L65.202 2.87799ZM71.9242 1.54065L71.6468 2.50139C73.6288 2.50139 75.428 2.86136 77.0513 3.5825L77.6873 2.69353L78.3232 1.80456C76.4864 0.988535 74.4436 0.579924 72.2017 0.579924L71.9242 1.54065ZM77.6873 2.69353L77.0513 3.5825C78.6723 4.30268 79.9591 5.32125 80.9207 6.63953L81.8296 5.9677L82.7385 5.29587C81.637 3.78576 80.1622 2.62155 78.3232 1.80456L77.6873 2.69353ZM81.8296 5.9677L81.2299 5.36065L76.4045 9.60324L77.0042 10.2103L77.604 10.8173L82.4294 6.57475L81.8296 5.9677ZM77.0042 10.2103L77.8559 9.4705C76.9412 8.52498 75.9048 7.78162 74.7434 7.24967L74.0996 8.13511L73.4558 9.02055C74.4423 9.47239 75.3423 10.1125 76.1526 10.9501L77.0042 10.2103ZM74.0996 8.13511L74.7434 7.24967C73.5468 6.70161 72.1289 6.43654 70.5102 6.43654L70.2327 7.39727L69.9552 8.358C71.3445 8.358 72.5045 8.58483 73.4558 9.02055L74.0996 8.13511ZM70.2327 7.39727L70.5102 6.43654C68.8344 6.43654 67.2741 6.78875 65.8952 7.58755L66.257 8.36569L66.6188 9.14382C67.4688 8.6514 68.559 8.358 69.9552 8.358L70.2327 7.39727ZM66.257 8.36569L65.9016 7.58391C64.4863 8.39446 63.5641 9.57385 63.1538 10.9942H64.1538H65.1538C65.4006 10.1396 65.8805 9.56664 66.6124 9.14746L66.257 8.36569ZM64.1538 10.9942H63.1538C62.861 12.0081 62.9322 12.914 63.4307 13.6356L64.3491 12.9772L65.2675 12.3187C65.0439 11.9951 64.9849 11.579 65.1538 10.9942H64.1538ZM64.3491 12.9772L63.4307 13.6356C63.8606 14.258 64.4843 14.7817 65.2701 15.2199L65.9655 14.3606L66.6609 13.5013C66.0136 13.1403 65.5596 12.7417 65.2675 12.3187L64.3491 12.9772ZM65.9655 14.3606L65.2945 15.233C66.0307 15.6073 66.8413 15.9962 67.7259 16.3995L68.3685 15.5135L69.0112 14.6275C68.1426 14.2315 67.3512 13.8518 66.6365 13.4883L65.9655 14.3606ZM68.3685 15.5135L67.738 16.4049L71.8746 18.2034L72.5051 17.312L73.1356 16.4206L68.999 14.6221L68.3685 15.5135ZM72.5051 17.312L71.8761 18.204C73.0834 18.7259 74.0541 19.3705 74.8017 20.1308L75.6497 19.3872L76.4977 18.6436C75.6128 17.7437 74.4871 17.0049 73.1341 16.42L72.5051 17.312ZM75.6497 19.3872L74.8105 20.1395C75.5685 20.8812 76.0469 21.765 76.2575 22.7959L77.28 22.3847L78.3025 21.9734C78.0359 20.6678 77.4275 19.5533 76.4889 18.6348L75.6497 19.3872ZM77.28 22.3847L76.2615 22.8143C76.4939 23.818 76.4144 25.077 75.9666 26.6273H76.9666H77.9666C78.4778 24.8572 78.6072 23.2878 78.2985 21.955L77.28 22.3847ZM76.9666 26.6273H75.9666C75.488 28.2842 74.5766 29.8096 73.2154 31.2241L73.9042 31.746L74.593 32.2679C76.2495 30.5466 77.3797 28.6595 77.9666 26.6273H76.9666ZM73.9042 31.746L73.2046 31.2354C71.8848 32.6366 70.211 33.7858 68.1423 34.671L68.348 35.5275L68.5537 36.3839C70.9396 35.363 72.9699 33.9913 74.6038 32.2566L73.9042 31.746ZM68.348 35.5275L68.1355 34.6739C66.1408 35.5399 63.8394 35.9963 61.2046 35.9963L60.9271 36.957L60.6496 37.9178C63.5189 37.9178 66.1647 37.4211 68.5605 36.381L68.348 35.5275ZM86.1553 36.3114H85.1553L84.8779 37.2722H85.8779L86.1553 36.3114ZM94.3733 7.85842H95.3733L95.6507 6.89769H94.6507L94.3733 7.85842ZM84.3893 7.85842H83.3893L83.1118 8.81915H84.1118L84.3893 7.85842ZM86.0408 2.14015L86.3183 1.17942H85.3183L85.0408 2.14015H86.0408ZM113.161 2.14015H114.161L114.438 1.17942H113.438L113.161 2.14015ZM111.509 7.85842L111.232 8.81915H112.232L112.509 7.85842H111.509ZM101.477 7.85842L101.755 6.89769H100.755L100.477 7.85842H101.477ZM93.2593 36.3114L92.9819 37.2722H93.9819L94.2593 36.3114H93.2593ZM86.1553 36.3114H87.1553L95.3733 7.85842H94.3733H93.3733L85.1553 36.3114H86.1553ZM94.3733 7.85842L94.6507 6.89769H84.6667L84.3893 7.85842L84.1118 8.81915H94.0958L94.3733 7.85842ZM84.3893 7.85842H85.3893L87.0408 2.14015H86.0408H85.0408L83.3893 7.85842H84.3893ZM86.0408 2.14015L85.7634 3.10088H112.883L113.161 2.14015L113.438 1.17942H86.3183L86.0408 2.14015ZM113.161 2.14015H112.161L110.509 7.85842H111.509H112.509L114.161 2.14015H113.161ZM111.509 7.85842L111.787 6.89769H101.755L101.477 7.85842L101.2 8.81915H111.232L111.509 7.85842ZM101.477 7.85842H100.477L92.2593 36.3114H93.2593H94.2593L102.477 7.85842H101.477ZM93.2593 36.3114L93.5368 35.3507H86.4328L86.1553 36.3114L85.8779 37.2722H92.9819L93.2593 36.3114ZM109.099 36.3114H108.099L107.822 37.2722H108.822L109.099 36.3114ZM118.969 2.14015L119.246 1.17942H118.246L117.969 2.14015H118.969ZM140.761 2.14015H141.761L142.038 1.17942H141.038L140.761 2.14015ZM139.109 7.85842L138.832 8.81915H139.832L140.109 7.85842H139.109ZM124.421 7.85842L124.699 6.89769H123.699L123.421 7.85842H124.421ZM122.144 15.7441H121.144L120.866 16.7048H121.866L122.144 15.7441ZM134.576 15.7441H135.576L135.853 14.7834H134.853L134.576 15.7441ZM132.924 21.4624L132.647 22.4231H133.647L133.924 21.4624H132.924ZM120.492 21.4624L120.77 20.5016H119.77L119.492 21.4624H120.492ZM117.855 30.5932H116.855L116.577 31.5539H117.577L117.855 30.5932ZM133.071 30.5932H134.071L134.348 29.6324H133.348L133.071 30.5932ZM131.419 36.3114L131.142 37.2722H132.142L132.419 36.3114H131.419ZM109.099 36.3114H110.099L119.969 2.14015H118.969H117.969L108.099 36.3114H109.099ZM118.969 2.14015L118.691 3.10088H140.483L140.761 2.14015L141.038 1.17942H119.246L118.969 2.14015ZM140.761 2.14015H139.761L138.109 7.85842H139.109H140.109L141.761 2.14015H140.761ZM139.109 7.85842L139.387 6.89769H124.699L124.421 7.85842L124.144 8.81915H138.832L139.109 7.85842ZM124.421 7.85842H123.421L121.144 15.7441H122.144H123.144L125.421 7.85842H124.421ZM122.144 15.7441L121.866 16.7048H134.298L134.576 15.7441L134.853 14.7834H122.421L122.144 15.7441ZM134.576 15.7441H133.576L131.924 21.4624H132.924H133.924L135.576 15.7441H134.576ZM132.924 21.4624L133.202 20.5016H120.77L120.492 21.4624L120.215 22.4231H132.647L132.924 21.4624ZM120.492 21.4624H119.492L116.855 30.5932H117.855H118.855L121.492 21.4624H120.492ZM117.855 30.5932L117.577 31.5539H132.793L133.071 30.5932L133.348 29.6324H118.132L117.855 30.5932ZM133.071 30.5932H132.071L130.419 36.3114H131.419H132.419L134.071 30.5932H133.071ZM131.419 36.3114L131.697 35.3507H109.377L109.099 36.3114L108.822 37.2722H131.142L131.419 36.3114ZM138.631 36.3114H137.631L137.353 37.2722H138.353L138.631 36.3114ZM148.5 2.14015L148.778 1.17942H147.778L147.5 2.14015H148.5ZM156.372 2.14015L157.407 1.81308L157.351 1.17942H156.65L156.372 2.14015ZM157.785 18.1882L156.75 18.5153L156.75 18.5165L157.785 18.1882ZM157.957 21.4163L156.919 21.69L156.919 21.697L157.957 21.4163ZM158.067 24.6904L157.03 24.9785L157.056 25.6512H157.79L158.067 24.6904ZM158.307 24.6904L158.03 25.6512H158.744L159.163 25.002L158.307 24.6904ZM160.357 21.4163L161.232 21.697L161.236 21.69L160.357 21.4163ZM162.297 18.1882L161.448 17.8657L161.434 17.8875L161.42 17.9096L162.297 18.1882ZM172.884 2.14015L173.162 1.17942H172.456L172.035 1.81768L172.884 2.14015ZM180.756 2.14015H181.756L182.034 1.17942H181.034L180.756 2.14015ZM170.887 36.3114L170.609 37.2722H171.609L171.887 36.3114H170.887ZM164.407 36.3114H163.407L163.129 37.2722H164.129L164.407 36.3114ZM169.718 18.4188L170.697 18.4856L170.697 18.4856L169.718 18.4188ZM171.2 14.4529L170.238 14.3444L170.234 14.3541L170.23 14.3639L171.2 14.4529ZM172.671 10.8559L173.631 10.9682L174.073 9.89517H172.948L172.671 10.8559ZM172.479 10.8559L172.756 9.89517H172.047L171.627 10.5381L172.479 10.8559ZM167.233 18.8799L168.077 19.2106L168.081 19.2042L168.085 19.1978L167.233 18.8799ZM157.619 33.2217L157.341 34.1824H158.04L158.462 33.5524L157.619 33.2217ZM153.539 33.2217L152.505 33.5549L152.565 34.1824H153.261L153.539 33.2217ZM152.161 18.8799L151.125 19.1884L151.126 19.2008L151.127 19.2131L152.161 18.8799ZM151.647 10.8559L152.683 10.5474L152.641 9.89517H151.924L151.647 10.8559ZM151.455 10.8559L151.732 9.89517H150.608L150.429 10.9682L151.455 10.8559ZM150.8 14.4529L149.779 14.5399L149.778 14.5419L150.8 14.4529ZM149.99 18.4188L148.974 18.4856L148.971 18.4967L148.969 18.5078L149.99 18.4188ZM145.015 36.3114L144.737 37.2722H145.737L146.015 36.3114H145.015ZM138.631 36.3114H139.631L149.5 2.14015H148.5H147.5L137.631 36.3114H138.631ZM148.5 2.14015L148.223 3.10088H156.095L156.372 2.14015L156.65 1.17942H148.778L148.5 2.14015ZM156.372 2.14015L155.337 2.46722L156.75 18.5153L157.785 18.1882L158.82 17.8611L157.407 1.81308L156.372 2.14015ZM157.785 18.1882L156.75 18.5165C156.84 19.5114 156.896 20.5691 156.919 21.69L157.957 21.4163L158.994 21.1425C158.97 19.9884 158.912 18.8941 158.82 17.8599L157.785 18.1882ZM157.957 21.4163L156.919 21.697C156.952 22.8061 156.989 23.9 157.03 24.9785L158.067 24.6904L159.104 24.4024C159.063 23.3288 159.026 22.2399 158.994 21.1355L157.957 21.4163ZM158.067 24.6904L157.79 25.6512H158.03L158.307 24.6904L158.585 23.7297H158.345L158.067 24.6904ZM158.307 24.6904L159.163 25.002C159.864 23.9156 160.554 22.8139 161.232 21.697L160.357 21.4163L159.481 21.1355C158.816 22.2321 158.139 23.3132 157.451 24.3788L158.307 24.6904ZM160.357 21.4163L161.236 21.69C161.916 20.554 162.562 19.4796 163.174 18.4668L162.297 18.1882L161.42 17.9096C160.806 18.9259 160.159 20.0035 159.477 21.1425L160.357 21.4163ZM162.297 18.1882L163.146 18.5107L173.733 2.46262L172.884 2.14015L172.035 1.81768L161.448 17.8657L162.297 18.1882ZM172.884 2.14015L172.607 3.10088H180.479L180.756 2.14015L181.034 1.17942H173.162L172.884 2.14015ZM180.756 2.14015H179.756L169.887 36.3114H170.887H171.887L181.756 2.14015H180.756ZM170.887 36.3114L171.164 35.3507H164.684L164.407 36.3114L164.129 37.2722H170.609L170.887 36.3114ZM164.407 36.3114H165.407L169.522 22.0619H168.522H167.522L163.407 36.3114H164.407ZM168.522 22.0619H169.522C169.834 20.9812 170.225 19.7895 170.697 18.4856L169.718 18.4188L168.74 18.3519C168.256 19.6919 167.849 20.929 167.522 22.0619H168.522ZM169.718 18.4188L170.697 18.4856C171.172 17.1711 171.663 15.8565 172.17 14.5419L171.2 14.4529L170.23 14.3639C169.717 15.6932 169.221 17.0225 168.74 18.3519L169.718 18.4188ZM171.2 14.4529L172.162 14.5614C172.712 13.2096 173.202 12.0119 173.631 10.9682L172.671 10.8559L171.71 10.7436C171.279 11.7905 170.789 12.9908 170.238 14.3444L171.2 14.4529ZM172.671 10.8559L172.948 9.89517H172.756L172.479 10.8559L172.201 11.8166H172.393L172.671 10.8559ZM172.479 10.8559L171.627 10.5381L166.381 18.5621L167.233 18.8799L168.085 19.1978L173.331 11.1737L172.479 10.8559ZM167.233 18.8799L166.39 18.5493L156.776 32.8911L157.619 33.2217L158.462 33.5524L168.077 19.2106L167.233 18.8799ZM157.619 33.2217L157.896 32.261H153.816L153.539 33.2217L153.261 34.1824H157.341L157.619 33.2217ZM153.539 33.2217L154.573 32.8885L153.195 18.5467L152.161 18.8799L151.127 19.2131L152.505 33.5549L153.539 33.2217ZM152.161 18.8799L153.197 18.5714L152.683 10.5474L151.647 10.8559L150.611 11.1644L151.125 19.1884L152.161 18.8799ZM151.647 10.8559L151.924 9.89517H151.732L151.455 10.8559L151.177 11.8166H151.369L151.647 10.8559ZM151.455 10.8559L150.429 10.9682C150.257 12.003 150.04 13.1933 149.779 14.5399L150.8 14.4529L151.821 14.3659C152.085 13.007 152.305 11.7993 152.48 10.7436L151.455 10.8559ZM150.8 14.4529L149.778 14.5419C149.526 15.8565 149.258 17.1711 148.974 18.4856L149.99 18.4188L151.007 18.3519C151.295 17.0225 151.566 15.6932 151.821 14.3639L150.8 14.4529ZM149.99 18.4188L148.969 18.5078C148.72 19.8058 148.44 20.99 148.13 22.0619H149.13H150.13C150.46 20.9202 150.753 19.6757 151.012 18.3298L149.99 18.4188ZM149.13 22.0619H148.13L144.015 36.3114H145.015H146.015L150.13 22.0619H149.13ZM145.015 36.3114L145.292 35.3507H138.908L138.631 36.3114L138.353 37.2722H144.737L145.015 36.3114ZM179.552 36.3114H178.552L178.275 37.2722H179.275L179.552 36.3114ZM189.422 2.14015L189.699 1.17942H188.699L188.422 2.14015H189.422ZM207.849 3.15468L207.265 4.06471L207.269 4.06611L207.849 3.15468ZM211.869 6.52108L210.901 7.0951L210.905 7.1036L210.909 7.11196L211.869 6.52108ZM208.179 19.295L207.524 18.7392L207.521 18.7421L208.179 19.295ZM202.17 22.9842L202.056 22.0921L202.05 22.0941L202.17 22.9842ZM190.159 24.1832L190.437 23.2224H189.437L189.159 24.1832H190.159ZM186.656 36.3114L186.379 37.2722H187.379L187.656 36.3114H186.656ZM191.718 18.7877H190.718L190.44 19.7484H191.44L191.718 18.7877ZM201.84 17.312L201.408 16.5771L201.396 16.5853L201.84 17.312ZM204.208 8.78072L203.422 9.5801L203.432 9.58793L203.443 9.59542L204.208 8.78072ZM194.954 7.58173L195.232 6.621H194.232L193.954 7.58173H194.954ZM179.552 36.3114H180.552L190.422 2.14015H189.422H188.422L178.552 36.3114H179.552ZM189.422 2.14015L189.144 3.10088H200.808L201.086 2.14015L201.363 1.17942H189.699L189.422 2.14015ZM201.086 2.14015L200.808 3.10088C203.344 3.10088 205.491 3.42774 207.266 4.0647L207.849 3.15468L208.432 2.24466C206.438 1.52891 204.076 1.17942 201.363 1.17942L201.086 2.14015ZM207.849 3.15468L207.269 4.06611C209.027 4.68645 210.222 5.69953 210.901 7.0951L211.869 6.52108L212.836 5.94706C211.989 4.2068 210.504 2.97562 208.428 2.24325L207.849 3.15468ZM211.869 6.52108L210.909 7.11196C211.597 8.42559 211.646 10.312 210.903 12.885H211.903H212.903C213.722 10.0471 213.749 7.69091 212.828 5.9302L211.869 6.52108ZM211.903 12.885H210.903C210.2 15.3177 209.056 17.2469 207.524 18.7392L208.179 19.295L208.834 19.8507C210.775 17.9612 212.113 15.6171 212.903 12.885H211.903ZM208.179 19.295L207.521 18.7421C205.991 20.2407 204.18 21.3576 202.056 22.0921L202.17 22.9842L202.283 23.8762C204.782 23.0121 206.977 21.6695 208.837 19.8479L208.179 19.295ZM202.17 22.9842L202.05 22.0941C199.924 22.84 197.64 23.2224 195.189 23.2224L194.911 24.1832L194.634 25.1439C197.303 25.1439 199.858 24.727 202.289 23.8742L202.17 22.9842ZM194.911 24.1832L195.189 23.2224H190.437L190.159 24.1832L189.882 25.1439H194.634L194.911 24.1832ZM190.159 24.1832H189.159L185.656 36.3114H186.656H187.656L191.159 24.1832H190.159ZM186.656 36.3114L186.934 35.3507H179.83L179.552 36.3114L179.275 37.2722H186.379L186.656 36.3114ZM191.718 18.7877L191.44 19.7484H195.712L195.99 18.7877L196.267 17.827H191.995L191.718 18.7877ZM195.99 18.7877L195.712 19.7484C198.258 19.7484 200.495 19.2376 202.284 18.0387L201.84 17.312L201.396 16.5853C200.249 17.354 198.586 17.827 196.267 17.827L195.99 18.7877ZM201.84 17.312L202.272 18.0469C204.126 16.8307 205.318 15.0481 205.943 12.885H204.943H203.943C203.431 14.657 202.554 15.8258 201.408 16.5771L201.84 17.312ZM204.943 12.885H205.943C206.569 10.7178 206.356 8.97017 204.973 7.96602L204.208 8.78072L203.443 9.59542C204.176 10.1284 204.453 11.1169 203.943 12.885H204.943ZM204.208 8.78072L204.994 7.98135C203.782 7.0289 201.81 6.621 199.264 6.621L198.986 7.58173L198.709 8.54246C201.09 8.54246 202.6 8.93388 203.422 9.5801L204.208 8.78072ZM198.986 7.58173L199.264 6.621H195.232L194.954 7.58173L194.677 8.54246H198.709L198.986 7.58173ZM194.954 7.58173H193.954L190.718 18.7877H191.718H192.718L195.954 7.58173H194.954ZM229.419 34.928L228.694 35.7698L228.698 35.7722L229.419 34.928ZM225.041 28.9791L226.05 28.5142L225.041 28.9791ZM229.022 11.8704L228.191 11.5222L228.186 11.5289L229.022 11.8704ZM234.343 6.24439L234.863 6.91684L234.863 6.91683L234.343 6.24439ZM240.779 2.73964L240.66 1.84956L240.66 1.84956L240.779 2.73964ZM253.878 2.92411L253.161 3.77097L253.169 3.77577L253.177 3.78038L253.878 2.92411ZM257.476 5.92159L258.063 6.5397L258.848 5.86523L258.38 5.24225L257.476 5.92159ZM252.432 10.2564L251.549 10.9604L252.12 11.6473L253.019 10.8745L252.432 10.2564ZM250.042 8.22734L249.32 9.07083L249.329 9.07642L250.042 8.22734ZM240.653 8.82684L240.957 9.63666L240.965 9.63279L240.972 9.62883L240.653 8.82684ZM235.991 12.8388L236.785 13.2376L235.991 12.8388ZM232.218 25.5666L231.188 25.9339L231.19 25.9433L231.191 25.9525L232.218 25.5666ZM242.583 30.7315L242.585 31.6566L242.604 31.6519L242.623 31.6465L242.583 30.7315ZM244.782 29.7631L245.228 30.4891L245.656 30.2018L245.782 29.7631H244.782ZM246.727 23.0303H247.727L248.004 22.0695H247.004L246.727 23.0303ZM240.439 23.0303H239.439L239.162 23.991H240.162L240.439 23.0303ZM242.051 17.4504L242.328 16.4896H241.328L241.051 17.4504H242.051ZM254.723 17.4504H255.723L256 16.4896H255L254.723 17.4504ZM250.274 32.8528L250.773 33.5411L251.157 33.2583L251.274 32.8528H250.274ZM244.587 35.758L244.462 34.87L244.587 35.758ZM237.521 36.957L237.798 35.9963C234.75 35.9963 232.206 35.3536 230.14 34.0838L229.419 34.928L228.698 35.7722C231.034 37.2077 233.891 37.9178 237.243 37.9178L237.521 36.957ZM229.419 34.928L230.144 34.0862C228.124 32.8266 226.757 30.9792 226.05 28.5142L225.041 28.9791L224.031 29.444C224.823 32.2054 226.375 34.324 228.694 35.7698L229.419 34.928ZM225.041 28.9791L226.05 28.5142C225.351 26.0764 225.498 23.0485 226.555 19.3872H225.555H224.555C223.428 23.2888 223.232 26.6555 224.031 29.444L225.041 28.9791ZM225.555 19.3872H226.555C227.345 16.6516 228.452 14.2653 229.858 12.2119L229.022 11.8704L228.186 11.5289C226.603 13.8411 225.399 16.466 224.555 19.3872H225.555ZM229.022 11.8704L229.854 12.2186C231.314 10.1136 232.985 8.352 234.863 6.91684L234.343 6.24439L233.823 5.57195C231.678 7.21112 229.801 9.20017 228.191 11.5222L229.022 11.8704ZM234.343 6.24439L234.863 6.91683C236.754 5.47238 238.763 4.37883 240.899 3.62973L240.779 2.73964L240.66 1.84956C238.238 2.69911 235.957 3.94206 233.823 5.57195L234.343 6.24439ZM240.779 2.73964L240.899 3.62973C243.035 2.8803 245.224 2.50139 247.472 2.50139L247.75 1.54065L248.027 0.579924C245.539 0.579924 243.081 1.00033 240.66 1.84956L240.779 2.73964ZM247.75 1.54065L247.472 2.50139C249.909 2.50139 251.787 2.94035 253.161 3.77097L253.878 2.92411L254.595 2.07724C252.918 1.06326 250.71 0.579924 248.027 0.579924L247.75 1.54065ZM253.878 2.92411L253.177 3.78038C254.683 4.63733 255.806 5.58117 256.573 6.60092L257.476 5.92159L258.38 5.24225C257.482 4.04848 256.206 2.99399 254.579 2.06783L253.878 2.92411ZM257.476 5.92159L256.889 5.30347L251.845 9.63829L252.432 10.2564L253.019 10.8745L258.063 6.5397L257.476 5.92159ZM252.432 10.2564L253.316 9.55239C252.603 8.69561 251.749 7.9706 250.756 7.37826L250.042 8.22734L249.329 9.07642C250.192 9.59084 250.931 10.2185 251.549 10.9604L252.432 10.2564ZM250.042 8.22734L250.765 7.38392C249.71 6.73233 248.29 6.43654 246.576 6.43654L246.298 7.39727L246.021 8.358C247.507 8.358 248.583 8.61559 249.32 9.07076L250.042 8.22734ZM246.298 7.39727L246.576 6.43654C244.417 6.43654 242.326 6.95787 240.334 8.02484L240.653 8.82684L240.972 9.62883C242.539 8.78971 244.212 8.358 246.021 8.358L246.298 7.39727ZM240.653 8.82684L240.349 8.01701C238.364 9.05103 236.646 10.5407 235.196 12.4401L235.991 12.8388L236.785 13.2376C238.011 11.6323 239.402 10.4472 240.957 9.63666L240.653 8.82684ZM235.991 12.8388L235.196 12.4401C233.74 14.3473 232.657 16.5963 231.918 19.1566H232.918H233.918C234.599 16.798 235.565 14.8352 236.785 13.2376L235.991 12.8388ZM232.918 19.1566H231.918C231.172 21.7379 230.915 24.0059 231.188 25.9339L232.218 25.5666L233.249 25.1993C233.016 23.5611 233.225 21.5558 233.918 19.1566H232.918ZM232.218 25.5666L231.191 25.9525C231.512 27.8667 232.387 29.3736 233.829 30.4366L234.598 29.6247L235.368 28.8128C234.224 27.9698 233.512 26.7713 233.246 25.1807L232.218 25.5666ZM234.598 29.6247L233.829 30.4366C235.282 31.508 237.268 32.015 239.716 32.015L239.993 31.0543L240.271 30.0936C238.111 30.0936 236.5 29.6476 235.368 28.8128L234.598 29.6247ZM239.993 31.0543L239.716 32.015C240.667 32.015 241.625 31.8964 242.585 31.6566L242.583 30.7315L242.58 29.8063C241.816 29.997 241.047 30.0936 240.271 30.0936L239.993 31.0543ZM242.583 30.7315L242.623 31.6465C243.592 31.3731 244.472 30.9965 245.228 30.4891L244.782 29.7631L244.337 29.0371C243.902 29.329 243.316 29.598 242.542 29.8165L242.583 30.7315ZM244.782 29.7631H245.782L247.727 23.0303H246.727H245.727L243.782 29.7631H244.782ZM246.727 23.0303L247.004 22.0695H240.716L240.439 23.0303L240.162 23.991H246.45L246.727 23.0303ZM240.439 23.0303H241.439L243.051 17.4504H242.051H241.051L239.439 23.0303H240.439ZM242.051 17.4504L241.773 18.4111H254.445L254.723 17.4504L255 16.4896H242.328L242.051 17.4504ZM254.723 17.4504H253.723L249.274 32.8528H250.274H251.274L255.723 17.4504H254.723ZM250.274 32.8528L249.775 32.1645C248.374 33.1962 246.613 34.1046 244.462 34.87L244.587 35.758L244.712 36.6461C247.054 35.8128 249.085 34.7844 250.773 33.5411L250.274 32.8528ZM244.587 35.758L244.462 34.87C242.366 35.6155 240.148 35.9963 237.798 35.9963L237.521 36.957L237.243 37.9178C239.821 37.9178 242.314 37.4992 244.712 36.6461L244.587 35.758ZM256.849 36.3114H255.849L255.572 37.2722H256.572L256.849 36.3114ZM266.719 2.14015L266.996 1.17942H265.996L265.719 2.14015H266.719ZM285.591 3.10857L285.012 4.01999L285.018 4.02218L285.024 4.02426L285.591 3.10857ZM289.459 6.33662L288.49 6.90813L288.494 6.91556L289.459 6.33662ZM285.876 18.7416L286.53 19.2986L286.537 19.2915L285.876 18.7416ZM280.05 22.2924L280.147 23.1903L280.161 23.1854L280.05 22.2924ZM267.683 23.3992L267.96 22.4385H266.96L266.683 23.3992H267.683ZM263.953 36.3114L263.676 37.2722H264.676L264.953 36.3114H263.953ZM269.241 18.0037H268.241L267.964 18.9645H268.964L269.241 18.0037ZM279.481 16.6203L279.079 15.8662L279.066 15.874L279.481 16.6203ZM281.772 8.68849L280.995 9.49451L281.005 9.50265L281.016 9.5104L281.772 8.68849ZM272.251 7.58173L272.529 6.621H271.529L271.251 7.58173H272.251ZM276.145 36.3114L275.134 36.7685L275.272 37.2722H275.868L276.145 36.3114ZM272.125 21.6468L271.67 20.9272L270.929 21.4328L271.113 22.1039L272.125 21.6468ZM278.342 17.4042L279.348 16.928L279.035 15.9016L277.887 16.6847L278.342 17.4042ZM284.113 36.3114L283.836 37.2722H285.558L285.119 35.8352L284.113 36.3114ZM256.849 36.3114H257.849L267.719 2.14015H266.719H265.719L255.849 36.3114H256.849ZM266.719 2.14015L266.441 3.10088H278.777L279.055 2.14015L279.332 1.17942H266.996L266.719 2.14015ZM279.055 2.14015L278.777 3.10088C281.218 3.10088 283.29 3.41255 285.012 4.01999L285.591 3.10857L286.171 2.19714C284.233 1.51335 281.948 1.17942 279.332 1.17942L279.055 2.14015ZM285.591 3.10857L285.024 4.02426C286.692 4.58201 287.833 5.54398 288.49 6.9081L289.459 6.33662L290.428 5.76514C289.604 4.05492 288.167 2.86486 286.158 2.19287L285.591 3.10857ZM289.459 6.33662L288.494 6.91556C289.133 8.20176 289.167 10.033 288.45 12.516H289.45H290.45C291.242 9.77266 291.282 7.48433 290.424 5.75768L289.459 6.33662ZM289.45 12.516H288.45C287.763 14.8932 286.666 16.7621 285.215 18.1916L285.876 18.7416L286.537 19.2915C288.395 17.4623 289.68 15.1808 290.45 12.516H289.45ZM285.876 18.7416L285.222 18.1846C283.742 19.6227 281.991 20.6948 279.939 21.3994L280.05 22.2924L280.161 23.1854C282.585 22.3529 284.719 21.0577 286.53 19.2986L285.876 18.7416ZM280.05 22.2924L279.954 21.3946C277.87 22.0844 275.619 22.4385 273.192 22.4385L272.915 23.3992L272.637 24.3599C275.266 24.3599 277.773 23.9762 280.147 23.1902L280.05 22.2924ZM272.915 23.3992L273.192 22.4385H267.96L267.683 23.3992L267.405 24.3599H272.637L272.915 23.3992ZM267.683 23.3992H266.683L262.953 36.3114H263.953H264.953L268.683 23.3992H267.683ZM263.953 36.3114L264.231 35.3507H257.127L256.849 36.3114L256.572 37.2722H263.676L263.953 36.3114ZM269.241 18.0037L268.964 18.9645H273.572L273.849 18.0037L274.127 17.043H269.519L269.241 18.0037ZM273.849 18.0037L273.572 18.9645C275.993 18.9645 278.139 18.483 279.895 17.3665L279.481 16.6203L279.066 15.874C277.921 16.6022 276.313 17.043 274.127 17.043L273.849 18.0037ZM279.481 16.6203L279.882 17.3743C281.722 16.2298 282.902 14.5527 283.49 12.516H282.49H281.49C281.03 14.1071 280.204 15.1661 279.079 15.8662L279.481 16.6203ZM282.49 12.516H283.49C284.082 10.4677 283.872 8.8068 282.527 7.86658L281.772 8.68849L281.016 9.5104C281.695 9.98437 281.964 10.8752 281.49 12.516H282.49ZM281.772 8.68849L282.549 7.88247C281.385 6.99828 279.523 6.621 277.137 6.621L276.859 7.58173L276.582 8.54246C278.803 8.54246 280.216 8.90302 280.995 9.49451L281.772 8.68849ZM276.859 7.58173L277.137 6.621H272.529L272.251 7.58173L271.974 8.54246H276.582L276.859 7.58173ZM272.251 7.58173H271.251L268.241 18.0037H269.241H270.241L273.251 7.58173H272.251ZM276.145 36.3114L277.157 35.8544L273.136 21.1898L272.125 21.6468L271.113 22.1039L275.134 36.7685L276.145 36.3114ZM272.125 21.6468L272.58 22.3664L278.797 18.1238L278.342 17.4042L277.887 16.6847L271.67 20.9272L272.125 21.6468ZM278.342 17.4042L277.336 17.8805L283.107 36.7876L284.113 36.3114L285.119 35.8352L279.348 16.928L278.342 17.4042ZM284.113 36.3114L284.391 35.3507H276.423L276.145 36.3114L275.868 37.2722H283.836L284.113 36.3114ZM295.802 34.8357L295.032 35.6467L295.037 35.6508L295.043 35.6547L295.802 34.8357ZM292.019 28.6563L290.998 29.074L292.019 28.6563ZM297.52 9.61079L296.746 9.1852L296.746 9.1852L297.52 9.61079ZM304.819 3.61583L304.543 2.792L304.537 2.79496L304.819 3.61583ZM321.414 3.66195L320.65 4.47792L320.657 4.48282L321.414 3.66195ZM325.251 9.65691L324.231 10.0825L324.232 10.0866L325.251 9.65691ZM319.763 28.6563L320.543 29.074L319.763 28.6563ZM312.41 34.8357L312.703 35.6517L312.712 35.6467L312.41 34.8357ZM310.185 29.5786L309.788 28.8212L309.777 28.8284L310.185 29.5786ZM314.407 25.4283L315.244 25.769L315.247 25.7639L314.407 25.4283ZM318.044 12.8388L317.011 13.1848L317.011 13.1901L318.044 12.8388ZM316.178 8.82684L315.346 9.58621L315.355 9.59434L315.364 9.60218L316.178 8.82684ZM307.01 8.82684L307.388 9.59543L307.392 9.59317L307.01 8.82684ZM302.876 12.8388L302.043 12.4929L302.037 12.5015L302.876 12.8388ZM299.239 25.4283L298.204 25.7504L298.205 25.7597L298.206 25.769L299.239 25.4283ZM301.017 29.5786L300.175 30.3289L300.183 30.336L301.017 29.5786ZM303.494 36.957L303.771 35.9963C300.798 35.9963 298.408 35.328 296.562 34.0168L295.802 34.8357L295.043 35.6547C297.18 37.1719 299.917 37.9178 303.216 37.9178L303.494 36.957ZM295.802 34.8357L296.573 34.0248C294.765 32.6854 293.581 30.7692 293.04 28.2386L292.019 28.6563L290.998 29.074C291.6 31.8928 292.939 34.0962 295.032 35.6467L295.802 34.8357ZM292.019 28.6563L293.04 28.2386C292.503 25.7229 292.731 22.6753 293.773 19.0644H292.773H291.773C290.668 22.8934 290.392 26.2404 290.998 29.074L292.019 28.6563ZM292.773 19.0644H293.773C294.807 15.4847 296.325 12.4868 298.293 10.0364L297.52 9.61079L296.746 9.1852C294.517 11.9611 292.871 15.2657 291.773 19.0644H292.773ZM297.52 9.61079L298.293 10.0364C300.274 7.57059 302.542 5.71653 305.102 4.4367L304.819 3.61583L304.537 2.79496C301.562 4.28204 298.963 6.42462 296.746 9.1852L297.52 9.61079ZM304.819 3.61583L305.096 4.43965C307.693 3.15624 310.468 2.50139 313.445 2.50139L313.723 1.54065L314 0.579924C310.705 0.579924 307.545 1.30852 304.543 2.79201L304.819 3.61583ZM313.723 1.54065L313.445 2.50139C316.453 2.50139 318.839 3.17072 320.65 4.47788L321.414 3.66195L322.178 2.84601C320.07 1.32479 317.329 0.579924 314 0.579924L313.723 1.54065ZM321.414 3.66195L320.657 4.48282C322.478 5.76264 323.675 7.6167 324.231 10.0825L325.251 9.65691L326.27 9.23131C325.648 6.47074 324.287 4.32815 322.171 2.84108L321.414 3.66195ZM325.251 9.65691L324.232 10.0866C324.792 12.5038 324.584 15.4841 323.549 19.0644H324.549H325.549C326.646 15.2662 326.905 11.9749 326.269 9.22726L325.251 9.65691ZM324.549 19.0644H323.549C322.507 22.6753 320.974 25.7229 318.983 28.2386L319.763 28.6563L320.543 29.074C322.785 26.2404 324.444 22.8934 325.549 19.0644H324.549ZM319.763 28.6563L318.983 28.2386C316.981 30.7692 314.69 32.6854 312.108 34.0248L312.41 34.8357L312.712 35.6467C315.701 34.0962 318.312 31.8928 320.543 29.074L319.763 28.6563ZM312.41 34.8357L312.118 34.0198C309.552 35.327 306.779 35.9963 303.771 35.9963L303.494 36.957L303.216 37.9178C306.545 37.9178 309.716 37.1729 312.703 35.6517L312.41 34.8357ZM305.198 31.0543L304.921 32.015C306.89 32.015 308.795 31.4593 310.593 30.3288L310.185 29.5786L309.777 28.8284C308.446 29.6655 307.027 30.0936 305.476 30.0936L305.198 31.0543ZM310.185 29.5786L310.581 30.336C312.384 29.2248 313.934 27.6846 315.244 25.769L314.407 25.4283L313.571 25.0875C312.442 26.7382 311.178 27.9649 309.788 28.8213L310.185 29.5786ZM314.407 25.4283L315.247 25.7639C316.564 23.8193 317.575 21.5797 318.301 19.0644H317.301H316.301C315.625 21.4065 314.707 23.4096 313.567 25.0926L314.407 25.4283ZM317.301 19.0644H318.301C319.027 16.5511 319.299 14.3501 319.076 12.4876L318.044 12.8388L317.011 13.1901C317.201 14.7709 316.979 16.7202 316.301 19.0644H317.301ZM318.044 12.8388L319.076 12.4929C318.863 10.604 318.185 9.10276 316.993 8.0515L316.178 8.82684L315.364 9.60218C316.263 10.3955 316.828 11.5689 317.011 13.1848L318.044 12.8388ZM316.178 8.82684L317.01 8.06746C315.856 6.97233 314.27 6.43654 312.309 6.43654L312.031 7.39727L311.754 8.358C313.312 8.358 314.491 8.77525 315.346 9.58621L316.178 8.82684ZM312.031 7.39727L312.309 6.43654C310.347 6.43654 308.441 6.97222 306.629 8.0605L307.01 8.82684L307.392 9.59317C308.754 8.77536 310.195 8.358 311.754 8.358L312.031 7.39727ZM307.01 8.82684L306.632 8.05825C304.868 9.11043 303.343 10.6099 302.043 12.4929L302.876 12.8388L303.709 13.1848C304.828 11.5631 306.06 10.3878 307.388 9.59542L307.01 8.82684ZM302.876 12.8388L302.037 12.5015C300.775 14.3595 299.794 16.5553 299.069 19.0644H300.069H301.069C301.748 16.716 302.638 14.7615 303.714 13.1762L302.876 12.8388ZM300.069 19.0644H299.069C298.344 21.5754 298.046 23.8101 298.204 25.7504L299.239 25.4283L300.275 25.1061C300.137 23.4187 300.392 21.4108 301.069 19.0644H300.069ZM299.239 25.4283L298.206 25.769C298.408 27.6789 299.05 29.2171 300.175 30.3288L301.017 29.5786L301.858 28.8284C300.992 27.9726 300.448 26.7439 300.273 25.0875L299.239 25.4283ZM301.017 29.5786L300.183 30.336C301.356 31.4595 302.952 32.015 304.921 32.015L305.198 31.0543L305.476 30.0936C303.925 30.0936 302.733 29.6654 301.851 28.8213L301.017 29.5786ZM334.396 36.0808L333.784 36.9797L333.79 36.9825L333.798 36.9852L334.396 36.0808ZM330.854 33.2217L329.92 33.8568L329.926 33.8663L330.854 33.2217ZM329.604 28.2413L330.642 27.9755L329.604 28.2413ZM336.231 2.14015L336.509 1.17942H335.509L335.231 2.14015H336.231ZM343.287 2.14015H344.287L344.565 1.17942H343.565L343.287 2.14015ZM336.871 27.1806L335.837 27.5202L336.871 27.1806ZM338.309 30.1781L337.534 30.9854L337.547 30.9951L337.56 31.0042L338.309 30.1781ZM345.605 30.1781L345.877 31.0042L345.888 30.9986L345.9 30.9928L345.605 30.1781ZM348.823 27.1806L347.997 26.8238L347.991 26.8324L347.985 26.8411L348.823 27.1806ZM356.919 2.14015L357.197 1.17942H356.197L355.919 2.14015H356.919ZM363.735 2.14015H364.735L365.013 1.17942H364.013L363.735 2.14015ZM355.284 28.2413L354.4 27.9755L355.284 28.2413ZM351.158 33.2217L351.725 33.8568L351.158 33.2217ZM346.012 36.0808L346.088 36.9852L346.097 36.9825L346.106 36.9797L346.012 36.0808ZM339.999 36.957L340.277 35.9963C338.159 35.9963 336.405 35.716 334.995 35.1765L334.396 36.0808L333.798 36.9852C335.442 37.614 337.424 37.9178 339.722 37.9178L339.999 36.957ZM334.396 36.0808L335.009 35.182C333.624 34.621 332.551 33.7551 331.782 32.5771L330.854 33.2217L329.926 33.8663C330.843 35.2707 332.132 36.3109 333.784 36.9797L334.396 36.0808ZM330.854 33.2217L331.788 32.5866C331.057 31.4234 330.663 29.8984 330.642 27.9755L329.604 28.2413L328.567 28.5071C328.59 30.6423 329.029 32.4375 329.92 33.8568L330.854 33.2217ZM329.604 28.2413L330.642 27.9755C330.621 26.0564 330.998 23.722 331.797 20.9551H330.797H329.797C328.962 23.845 328.544 26.368 328.567 28.5071L329.604 28.2413ZM330.797 20.9551H331.797L337.231 2.14015H336.231H335.231L329.797 20.9551H330.797ZM336.231 2.14015L335.954 3.10088H343.01L343.287 2.14015L343.565 1.17942H336.509L336.231 2.14015ZM343.287 2.14015H342.287L336.68 21.5546H337.68H338.68L344.287 2.14015H343.287ZM337.68 21.5546H336.68C335.98 23.9766 335.677 25.9828 335.837 27.5202L336.871 27.1806L337.904 26.8411C337.776 25.6116 338.012 23.8671 338.68 21.5546H337.68ZM336.871 27.1806L335.837 27.5202C335.996 29.0376 336.532 30.2294 337.534 30.9854L338.309 30.1781L339.084 29.3708C338.457 28.8971 338.035 28.0906 337.904 26.8411L336.871 27.1806ZM338.309 30.1781L337.56 31.0042C338.566 31.6914 339.872 32.015 341.426 32.015L341.704 31.0543L341.981 30.0936C340.72 30.0936 339.763 29.8331 339.058 29.352L338.309 30.1781ZM341.704 31.0543L341.426 32.015C342.981 32.015 344.474 31.6914 345.877 31.0042L345.605 30.1781L345.333 29.352C344.351 29.8331 343.243 30.0936 341.981 30.0936L341.704 31.0543ZM345.605 30.1781L345.9 30.9928C347.373 30.239 348.62 29.0458 349.66 27.5202L348.823 27.1806L347.985 26.8411C347.139 28.0824 346.24 28.8875 345.31 29.3634L345.605 30.1781ZM348.823 27.1806L349.648 27.5374C350.737 25.9935 351.611 23.9805 352.312 21.5546H351.312H350.312C349.645 23.8632 348.86 25.6008 347.997 26.8238L348.823 27.1806ZM351.312 21.5546H352.312L357.919 2.14015H356.919H355.919L350.312 21.5546H351.312ZM356.919 2.14015L356.642 3.10088H363.458L363.735 2.14015L364.013 1.17942H357.197L356.919 2.14015ZM363.735 2.14015H362.735L357.301 20.9551H358.301H359.301L364.735 2.14015H363.735ZM358.301 20.9551H357.301C356.502 23.722 355.53 26.0564 354.4 27.9755L355.284 28.2413L356.169 28.5071C357.427 26.368 358.466 23.845 359.301 20.9551H358.301ZM355.284 28.2413L354.4 27.9755C353.269 29.8984 351.994 31.4234 350.591 32.5866L351.158 33.2217L351.725 33.8568C353.436 32.4375 354.912 30.6423 356.169 28.5071L355.284 28.2413ZM351.158 33.2217L350.591 32.5866C349.178 33.7586 347.626 34.6218 345.919 35.182L346.012 36.0808L346.106 36.9797C348.146 36.3101 350.024 35.2673 351.725 33.8568L351.158 33.2217ZM346.012 36.0808L345.936 35.1765C344.21 35.717 342.327 35.9963 340.277 35.9963L339.999 36.957L339.722 37.9178C341.959 37.9178 344.084 37.613 346.088 36.9852L346.012 36.0808ZM362.412 36.3114H361.412L361.134 37.2722H362.134L362.412 36.3114ZM372.281 2.14015L372.559 1.17942H371.559L371.281 2.14015H372.281ZM390.708 3.15468L390.125 4.06471L390.129 4.06611L390.708 3.15468ZM394.728 6.52108L393.76 7.0951L393.764 7.1036L393.769 7.11196L394.728 6.52108ZM391.039 19.295L390.383 18.7392L390.381 18.7421L391.039 19.295ZM385.029 22.9842L384.915 22.0921L384.91 22.0941L385.029 22.9842ZM373.019 24.1832L373.296 23.2224H372.296L372.019 24.1832H373.019ZM369.516 36.3114L369.238 37.2722H370.238L370.516 36.3114H369.516ZM374.577 18.7877H373.577L373.3 19.7484H374.3L374.577 18.7877ZM384.699 17.312L384.267 16.5771L384.255 16.5853L384.699 17.312ZM387.067 8.78072L386.282 9.5801L386.292 9.58793L386.302 9.59542L387.067 8.78072ZM377.814 7.58173L378.091 6.621H377.091L376.814 7.58173H377.814ZM362.412 36.3114H363.412L373.281 2.14015H372.281H371.281L361.412 36.3114H362.412ZM372.281 2.14015L372.004 3.10088H383.668L383.945 2.14015L384.223 1.17942H372.559L372.281 2.14015ZM383.945 2.14015L383.668 3.10088C386.203 3.10088 388.35 3.42774 390.125 4.0647L390.708 3.15468L391.292 2.24466C389.297 1.52891 386.935 1.17942 384.223 1.17942L383.945 2.14015ZM390.708 3.15468L390.129 4.06611C391.887 4.68645 393.081 5.69953 393.76 7.0951L394.728 6.52108L395.696 5.94706C394.849 4.2068 393.363 2.97562 391.288 2.24325L390.708 3.15468ZM394.728 6.52108L393.769 7.11196C394.456 8.42559 394.505 10.312 393.762 12.885H394.762H395.762C396.582 10.0471 396.608 7.69091 395.687 5.9302L394.728 6.52108ZM394.762 12.885H393.762C393.059 15.3177 391.916 17.2469 390.383 18.7392L391.039 19.295L391.694 19.8507C393.634 17.9612 394.973 15.6171 395.762 12.885H394.762ZM391.039 19.295L390.381 18.7421C388.85 20.2407 387.039 21.3576 384.915 22.0921L385.029 22.9842L385.143 23.8762C387.641 23.0121 389.836 21.6695 391.697 19.8479L391.039 19.295ZM385.029 22.9842L384.91 22.0941C382.783 22.84 380.499 23.2224 378.048 23.2224L377.771 24.1832L377.493 25.1439C380.162 25.1439 382.717 24.727 385.148 23.8742L385.029 22.9842ZM377.771 24.1832L378.048 23.2224H373.296L373.019 24.1832L372.741 25.1439H377.493L377.771 24.1832ZM373.019 24.1832H372.019L368.516 36.3114H369.516H370.516L374.019 24.1832H373.019ZM369.516 36.3114L369.793 35.3507H362.689L362.412 36.3114L362.134 37.2722H369.238L369.516 36.3114ZM374.577 18.7877L374.3 19.7484H378.572L378.849 18.7877L379.127 17.827H374.855L374.577 18.7877ZM378.849 18.7877L378.572 19.7484C381.117 19.7484 383.354 19.2376 385.144 18.0387L384.699 17.312L384.255 16.5853C383.108 17.354 381.445 17.827 379.127 17.827L378.849 18.7877ZM384.699 17.312L385.131 18.0469C386.986 16.8307 388.177 15.0481 388.802 12.885H387.802H386.802C386.29 14.657 385.413 15.8258 384.267 16.5771L384.699 17.312ZM387.802 12.885H388.802C389.428 10.7178 389.215 8.97017 387.833 7.96602L387.067 8.78072L386.302 9.59542C387.036 10.1284 387.313 11.1169 386.802 12.885H387.802ZM387.067 8.78072L387.853 7.98135C386.641 7.0289 384.67 6.621 382.123 6.621L381.846 7.58173L381.568 8.54246C383.95 8.54246 385.46 8.93388 386.282 9.5801L387.067 8.78072ZM381.846 7.58173L382.123 6.621H378.091L377.814 7.58173L377.536 8.54246H381.568L381.846 7.58173ZM377.814 7.58173H376.814L373.577 18.7877H374.577H375.577L378.814 7.58173H377.814Z" fill="white" fill-opacity="0.2" mask="url(#path-1-outside-1_93_1109)"/>
</svg>
