<svg width="752" height="224" viewBox="0 0 752 224" fill="none" xmlns="http://www.w3.org/2000/svg">
<path d="M0.72 15V14.424C2.04267 13.2933 3.104 12.264 3.904 11.336C4.71467 10.3973 5.30667 9.53333 5.68 8.744C6.05333 7.944 6.24 7.192 6.24 6.488C6.24 6.008 6.15467 5.576 5.984 5.192C5.824 4.79733 5.568 4.488 5.216 4.264C4.864 4.04 4.41067 3.928 3.856 3.928C3.35467 3.928 2.88 4.06133 2.432 4.328C1.99467 4.59467 1.60533 4.94133 1.264 5.368L0.672 4.808C1.10933 4.31733 1.58933 3.91733 2.112 3.608C2.63467 3.288 3.248 3.128 3.952 3.128C4.63467 3.128 5.216 3.26667 5.696 3.544C6.176 3.82133 6.544 4.21067 6.8 4.712C7.056 5.20267 7.184 5.78933 7.184 6.472C7.184 7.28267 6.98133 8.104 6.576 8.936C6.18133 9.768 5.61067 10.6213 4.864 11.496C4.11733 12.3707 3.22667 13.2933 2.192 14.264C2.512 14.2427 2.832 14.2213 3.152 14.2C3.48267 14.1787 3.80267 14.168 4.112 14.168H7.76V15H0.72ZM12.8505 15.208C12.1465 15.208 11.5332 14.9893 11.0105 14.552C10.4985 14.104 10.1038 13.432 9.8265 12.536C9.54917 11.6293 9.4105 10.4933 9.4105 9.128C9.4105 7.77333 9.54917 6.65333 9.8265 5.768C10.1038 4.88267 10.4985 4.22133 11.0105 3.784C11.5332 3.34667 12.1465 3.128 12.8505 3.128C13.5545 3.128 14.1625 3.34667 14.6745 3.784C15.1865 4.22133 15.5812 4.88267 15.8585 5.768C16.1358 6.65333 16.2745 7.77333 16.2745 9.128C16.2745 10.4933 16.1358 11.6293 15.8585 12.536C15.5812 13.432 15.1865 14.104 14.6745 14.552C14.1625 14.9893 13.5545 15.208 12.8505 15.208ZM12.8505 14.408C13.3518 14.408 13.7892 14.216 14.1625 13.832C14.5465 13.4373 14.8398 12.8507 15.0425 12.072C15.2452 11.2827 15.3465 10.3013 15.3465 9.128C15.3465 7.976 15.2452 7.01067 15.0425 6.232C14.8398 5.45333 14.5465 4.872 14.1625 4.488C13.7892 4.104 13.3518 3.912 12.8505 3.912C12.3492 3.912 11.9065 4.104 11.5225 4.488C11.1492 4.872 10.8558 5.45333 10.6425 6.232C10.4398 7.01067 10.3385 7.976 10.3385 9.128C10.3385 10.3013 10.4398 11.2827 10.6425 12.072C10.8558 12.8507 11.1492 13.4373 11.5225 13.832C11.9065 14.216 12.3492 14.408 12.8505 14.408ZM21.413 15.208C20.709 15.208 20.0957 14.9893 19.573 14.552C19.061 14.104 18.6663 13.432 18.389 12.536C18.1117 11.6293 17.973 10.4933 17.973 9.128C17.973 7.77333 18.1117 6.65333 18.389 5.768C18.6663 4.88267 19.061 4.22133 19.573 3.784C20.0957 3.34667 20.709 3.128 21.413 3.128C22.117 3.128 22.725 3.34667 23.237 3.784C23.749 4.22133 24.1437 4.88267 24.421 5.768C24.6983 6.65333 24.837 7.77333 24.837 9.128C24.837 10.4933 24.6983 11.6293 24.421 12.536C24.1437 13.432 23.749 14.104 23.237 14.552C22.725 14.9893 22.117 15.208 21.413 15.208ZM21.413 14.408C21.9143 14.408 22.3517 14.216 22.725 13.832C23.109 13.4373 23.4023 12.8507 23.605 12.072C23.8077 11.2827 23.909 10.3013 23.909 9.128C23.909 7.976 23.8077 7.01067 23.605 6.232C23.4023 5.45333 23.109 4.872 22.725 4.488C22.3517 4.104 21.9143 3.912 21.413 3.912C20.9117 3.912 20.469 4.104 20.085 4.488C19.7117 4.872 19.4183 5.45333 19.205 6.232C19.0023 7.01067 18.901 7.976 18.901 9.128C18.901 10.3013 19.0023 11.2827 19.205 12.072C19.4183 12.8507 19.7117 13.4373 20.085 13.832C20.469 14.216 20.9117 14.408 21.413 14.408ZM29.9755 15.208C29.2715 15.208 28.6582 14.9893 28.1355 14.552C27.6235 14.104 27.2288 13.432 26.9515 12.536C26.6742 11.6293 26.5355 10.4933 26.5355 9.128C26.5355 7.77333 26.6742 6.65333 26.9515 5.768C27.2288 4.88267 27.6235 4.22133 28.1355 3.784C28.6582 3.34667 29.2715 3.128 29.9755 3.128C30.6795 3.128 31.2875 3.34667 31.7995 3.784C32.3115 4.22133 32.7062 4.88267 32.9835 5.768C33.2608 6.65333 33.3995 7.77333 33.3995 9.128C33.3995 10.4933 33.2608 11.6293 32.9835 12.536C32.7062 13.432 32.3115 14.104 31.7995 14.552C31.2875 14.9893 30.6795 15.208 29.9755 15.208ZM29.9755 14.408C30.4768 14.408 30.9142 14.216 31.2875 13.832C31.6715 13.4373 31.9648 12.8507 32.1675 12.072C32.3702 11.2827 32.4715 10.3013 32.4715 9.128C32.4715 7.976 32.3702 7.01067 32.1675 6.232C31.9648 5.45333 31.6715 4.872 31.2875 4.488C30.9142 4.104 30.4768 3.912 29.9755 3.912C29.4742 3.912 29.0315 4.104 28.6475 4.488C28.2742 4.872 27.9808 5.45333 27.7675 6.232C27.5648 7.01067 27.4635 7.976 27.4635 9.128C27.4635 10.3013 27.5648 11.2827 27.7675 12.072C27.9808 12.8507 28.2742 13.4373 28.6475 13.832C29.0315 14.216 29.4742 14.408 29.9755 14.408Z" fill="white"/>
<path d="M1.472 71V70.184H4.128V60.712H2.064V60.072C2.544 59.9867 2.96533 59.8853 3.328 59.768C3.70133 59.64 4.02667 59.496 4.304 59.336H5.056V70.184H7.488V71H1.472ZM12.6105 71.208C12.0132 71.208 11.4905 71.1333 11.0425 70.984C10.5945 70.824 10.2052 70.632 9.8745 70.408C9.5545 70.1733 9.2665 69.9333 9.0105 69.688L9.5385 69.032C9.7625 69.2667 10.0132 69.4907 10.2905 69.704C10.5678 69.9067 10.8932 70.072 11.2665 70.2C11.6398 70.328 12.0772 70.392 12.5785 70.392C13.0692 70.392 13.5225 70.2693 13.9385 70.024C14.3545 69.768 14.6852 69.4053 14.9305 68.936C15.1758 68.456 15.2985 67.9067 15.2985 67.288C15.2985 66.36 15.0532 65.6293 14.5625 65.096C14.0825 64.5627 13.4372 64.296 12.6265 64.296C12.2105 64.296 11.8425 64.3653 11.5225 64.504C11.2132 64.632 10.8932 64.808 10.5625 65.032L9.9545 64.664L10.3545 59.336H15.6825V60.168H11.1865L10.8505 64.072C11.1278 63.9013 11.4212 63.768 11.7305 63.672C12.0505 63.576 12.4078 63.528 12.8025 63.528C13.4425 63.528 14.0238 63.6613 14.5465 63.928C15.0798 64.184 15.5012 64.5893 15.8105 65.144C16.1198 65.688 16.2745 66.392 16.2745 67.256C16.2745 68.0987 16.0932 68.8133 15.7305 69.4C15.3785 69.9867 14.9252 70.4347 14.3705 70.744C13.8158 71.0533 13.2292 71.208 12.6105 71.208ZM21.413 71.208C20.709 71.208 20.0957 70.9893 19.573 70.552C19.061 70.104 18.6663 69.432 18.389 68.536C18.1117 67.6293 17.973 66.4933 17.973 65.128C17.973 63.7733 18.1117 62.6533 18.389 61.768C18.6663 60.8827 19.061 60.2213 19.573 59.784C20.0957 59.3467 20.709 59.128 21.413 59.128C22.117 59.128 22.725 59.3467 23.237 59.784C23.749 60.2213 24.1437 60.8827 24.421 61.768C24.6983 62.6533 24.837 63.7733 24.837 65.128C24.837 66.4933 24.6983 67.6293 24.421 68.536C24.1437 69.432 23.749 70.104 23.237 70.552C22.725 70.9893 22.117 71.208 21.413 71.208ZM21.413 70.408C21.9143 70.408 22.3517 70.216 22.725 69.832C23.109 69.4373 23.4023 68.8507 23.605 68.072C23.8077 67.2827 23.909 66.3013 23.909 65.128C23.909 63.976 23.8077 63.0107 23.605 62.232C23.4023 61.4533 23.109 60.872 22.725 60.488C22.3517 60.104 21.9143 59.912 21.413 59.912C20.9117 59.912 20.469 60.104 20.085 60.488C19.7117 60.872 19.4183 61.4533 19.205 62.232C19.0023 63.0107 18.901 63.976 18.901 65.128C18.901 66.3013 19.0023 67.2827 19.205 68.072C19.4183 68.8507 19.7117 69.4373 20.085 69.832C20.469 70.216 20.9117 70.408 21.413 70.408ZM29.9755 71.208C29.2715 71.208 28.6582 70.9893 28.1355 70.552C27.6235 70.104 27.2288 69.432 26.9515 68.536C26.6742 67.6293 26.5355 66.4933 26.5355 65.128C26.5355 63.7733 26.6742 62.6533 26.9515 61.768C27.2288 60.8827 27.6235 60.2213 28.1355 59.784C28.6582 59.3467 29.2715 59.128 29.9755 59.128C30.6795 59.128 31.2875 59.3467 31.7995 59.784C32.3115 60.2213 32.7062 60.8827 32.9835 61.768C33.2608 62.6533 33.3995 63.7733 33.3995 65.128C33.3995 66.4933 33.2608 67.6293 32.9835 68.536C32.7062 69.432 32.3115 70.104 31.7995 70.552C31.2875 70.9893 30.6795 71.208 29.9755 71.208ZM29.9755 70.408C30.4768 70.408 30.9142 70.216 31.2875 69.832C31.6715 69.4373 31.9648 68.8507 32.1675 68.072C32.3702 67.2827 32.4715 66.3013 32.4715 65.128C32.4715 63.976 32.3702 63.0107 32.1675 62.232C31.9648 61.4533 31.6715 60.872 31.2875 60.488C30.9142 60.104 30.4768 59.912 29.9755 59.912C29.4742 59.912 29.0315 60.104 28.6475 60.488C28.2742 60.872 27.9808 61.4533 27.7675 62.232C27.5648 63.0107 27.4635 63.976 27.4635 65.128C27.4635 66.3013 27.5648 67.2827 27.7675 68.072C27.9808 68.8507 28.2742 69.4373 28.6475 69.832C29.0315 70.216 29.4742 70.408 29.9755 70.408Z" fill="white"/>
<path d="M1.472 127V126.184H4.128V116.712H2.064V116.072C2.544 115.987 2.96533 115.885 3.328 115.768C3.70133 115.64 4.02667 115.496 4.304 115.336H5.056V126.184H7.488V127H1.472ZM12.8505 127.208C12.1465 127.208 11.5332 126.989 11.0105 126.552C10.4985 126.104 10.1038 125.432 9.8265 124.536C9.54917 123.629 9.4105 122.493 9.4105 121.128C9.4105 119.773 9.54917 118.653 9.8265 117.768C10.1038 116.883 10.4985 116.221 11.0105 115.784C11.5332 115.347 12.1465 115.128 12.8505 115.128C13.5545 115.128 14.1625 115.347 14.6745 115.784C15.1865 116.221 15.5812 116.883 15.8585 117.768C16.1358 118.653 16.2745 119.773 16.2745 121.128C16.2745 122.493 16.1358 123.629 15.8585 124.536C15.5812 125.432 15.1865 126.104 14.6745 126.552C14.1625 126.989 13.5545 127.208 12.8505 127.208ZM12.8505 126.408C13.3518 126.408 13.7892 126.216 14.1625 125.832C14.5465 125.437 14.8398 124.851 15.0425 124.072C15.2452 123.283 15.3465 122.301 15.3465 121.128C15.3465 119.976 15.2452 119.011 15.0425 118.232C14.8398 117.453 14.5465 116.872 14.1625 116.488C13.7892 116.104 13.3518 115.912 12.8505 115.912C12.3492 115.912 11.9065 116.104 11.5225 116.488C11.1492 116.872 10.8558 117.453 10.6425 118.232C10.4398 119.011 10.3385 119.976 10.3385 121.128C10.3385 122.301 10.4398 123.283 10.6425 124.072C10.8558 124.851 11.1492 125.437 11.5225 125.832C11.9065 126.216 12.3492 126.408 12.8505 126.408ZM21.413 127.208C20.709 127.208 20.0957 126.989 19.573 126.552C19.061 126.104 18.6663 125.432 18.389 124.536C18.1117 123.629 17.973 122.493 17.973 121.128C17.973 119.773 18.1117 118.653 18.389 117.768C18.6663 116.883 19.061 116.221 19.573 115.784C20.0957 115.347 20.709 115.128 21.413 115.128C22.117 115.128 22.725 115.347 23.237 115.784C23.749 116.221 24.1437 116.883 24.421 117.768C24.6983 118.653 24.837 119.773 24.837 121.128C24.837 122.493 24.6983 123.629 24.421 124.536C24.1437 125.432 23.749 126.104 23.237 126.552C22.725 126.989 22.117 127.208 21.413 127.208ZM21.413 126.408C21.9143 126.408 22.3517 126.216 22.725 125.832C23.109 125.437 23.4023 124.851 23.605 124.072C23.8077 123.283 23.909 122.301 23.909 121.128C23.909 119.976 23.8077 119.011 23.605 118.232C23.4023 117.453 23.109 116.872 22.725 116.488C22.3517 116.104 21.9143 115.912 21.413 115.912C20.9117 115.912 20.469 116.104 20.085 116.488C19.7117 116.872 19.4183 117.453 19.205 118.232C19.0023 119.011 18.901 119.976 18.901 121.128C18.901 122.301 19.0023 123.283 19.205 124.072C19.4183 124.851 19.7117 125.437 20.085 125.832C20.469 126.216 20.9117 126.408 21.413 126.408ZM29.9755 127.208C29.2715 127.208 28.6582 126.989 28.1355 126.552C27.6235 126.104 27.2288 125.432 26.9515 124.536C26.6742 123.629 26.5355 122.493 26.5355 121.128C26.5355 119.773 26.6742 118.653 26.9515 117.768C27.2288 116.883 27.6235 116.221 28.1355 115.784C28.6582 115.347 29.2715 115.128 29.9755 115.128C30.6795 115.128 31.2875 115.347 31.7995 115.784C32.3115 116.221 32.7062 116.883 32.9835 117.768C33.2608 118.653 33.3995 119.773 33.3995 121.128C33.3995 122.493 33.2608 123.629 32.9835 124.536C32.7062 125.432 32.3115 126.104 31.7995 126.552C31.2875 126.989 30.6795 127.208 29.9755 127.208ZM29.9755 126.408C30.4768 126.408 30.9142 126.216 31.2875 125.832C31.6715 125.437 31.9648 124.851 32.1675 124.072C32.3702 123.283 32.4715 122.301 32.4715 121.128C32.4715 119.976 32.3702 119.011 32.1675 118.232C31.9648 117.453 31.6715 116.872 31.2875 116.488C30.9142 116.104 30.4768 115.912 29.9755 115.912C29.4742 115.912 29.0315 116.104 28.6475 116.488C28.2742 116.872 27.9808 117.453 27.7675 118.232C27.5648 119.011 27.4635 119.976 27.4635 121.128C27.4635 122.301 27.5648 123.283 27.7675 124.072C27.9808 124.851 28.2742 125.437 28.6475 125.832C29.0315 126.216 29.4742 126.408 29.9755 126.408Z" fill="white"/>
<path d="M4.048 183.208C3.45067 183.208 2.928 183.133 2.48 182.984C2.032 182.824 1.64267 182.632 1.312 182.408C0.992 182.173 0.704 181.933 0.448 181.688L0.976 181.032C1.2 181.267 1.45067 181.491 1.728 181.704C2.00533 181.907 2.33067 182.072 2.704 182.2C3.07733 182.328 3.51467 182.392 4.016 182.392C4.50667 182.392 4.96 182.269 5.376 182.024C5.792 181.768 6.12267 181.405 6.368 180.936C6.61333 180.456 6.736 179.907 6.736 179.288C6.736 178.36 6.49067 177.629 6 177.096C5.52 176.563 4.87467 176.296 4.064 176.296C3.648 176.296 3.28 176.365 2.96 176.504C2.65067 176.632 2.33067 176.808 2 177.032L1.392 176.664L1.792 171.336H7.12V172.168H2.624L2.288 176.072C2.56533 175.901 2.85867 175.768 3.168 175.672C3.488 175.576 3.84533 175.528 4.24 175.528C4.88 175.528 5.46133 175.661 5.984 175.928C6.51733 176.184 6.93867 176.589 7.248 177.144C7.55733 177.688 7.712 178.392 7.712 179.256C7.712 180.099 7.53067 180.813 7.168 181.4C6.816 181.987 6.36267 182.435 5.808 182.744C5.25333 183.053 4.66667 183.208 4.048 183.208ZM12.8505 183.208C12.1465 183.208 11.5332 182.989 11.0105 182.552C10.4985 182.104 10.1038 181.432 9.8265 180.536C9.54917 179.629 9.4105 178.493 9.4105 177.128C9.4105 175.773 9.54917 174.653 9.8265 173.768C10.1038 172.883 10.4985 172.221 11.0105 171.784C11.5332 171.347 12.1465 171.128 12.8505 171.128C13.5545 171.128 14.1625 171.347 14.6745 171.784C15.1865 172.221 15.5812 172.883 15.8585 173.768C16.1358 174.653 16.2745 175.773 16.2745 177.128C16.2745 178.493 16.1358 179.629 15.8585 180.536C15.5812 181.432 15.1865 182.104 14.6745 182.552C14.1625 182.989 13.5545 183.208 12.8505 183.208ZM12.8505 182.408C13.3518 182.408 13.7892 182.216 14.1625 181.832C14.5465 181.437 14.8398 180.851 15.0425 180.072C15.2452 179.283 15.3465 178.301 15.3465 177.128C15.3465 175.976 15.2452 175.011 15.0425 174.232C14.8398 173.453 14.5465 172.872 14.1625 172.488C13.7892 172.104 13.3518 171.912 12.8505 171.912C12.3492 171.912 11.9065 172.104 11.5225 172.488C11.1492 172.872 10.8558 173.453 10.6425 174.232C10.4398 175.011 10.3385 175.976 10.3385 177.128C10.3385 178.301 10.4398 179.283 10.6425 180.072C10.8558 180.851 11.1492 181.437 11.5225 181.832C11.9065 182.216 12.3492 182.408 12.8505 182.408ZM21.413 183.208C20.709 183.208 20.0957 182.989 19.573 182.552C19.061 182.104 18.6663 181.432 18.389 180.536C18.1117 179.629 17.973 178.493 17.973 177.128C17.973 175.773 18.1117 174.653 18.389 173.768C18.6663 172.883 19.061 172.221 19.573 171.784C20.0957 171.347 20.709 171.128 21.413 171.128C22.117 171.128 22.725 171.347 23.237 171.784C23.749 172.221 24.1437 172.883 24.421 173.768C24.6983 174.653 24.837 175.773 24.837 177.128C24.837 178.493 24.6983 179.629 24.421 180.536C24.1437 181.432 23.749 182.104 23.237 182.552C22.725 182.989 22.117 183.208 21.413 183.208ZM21.413 182.408C21.9143 182.408 22.3517 182.216 22.725 181.832C23.109 181.437 23.4023 180.851 23.605 180.072C23.8077 179.283 23.909 178.301 23.909 177.128C23.909 175.976 23.8077 175.011 23.605 174.232C23.4023 173.453 23.109 172.872 22.725 172.488C22.3517 172.104 21.9143 171.912 21.413 171.912C20.9117 171.912 20.469 172.104 20.085 172.488C19.7117 172.872 19.4183 173.453 19.205 174.232C19.0023 175.011 18.901 175.976 18.901 177.128C18.901 178.301 19.0023 179.283 19.205 180.072C19.4183 180.851 19.7117 181.437 20.085 181.832C20.469 182.216 20.9117 182.408 21.413 182.408Z" fill="white"/>
<rect x="65" y="178" width="684" height="1" fill="white" fill-opacity="0.1"/>
<rect x="65" y="121" width="684" height="1" fill="white" fill-opacity="0.1"/>
<rect x="65" y="65" width="684" height="1" fill="white" fill-opacity="0.1"/>
<rect x="65" y="10" width="684" height="1" fill="white" fill-opacity="0.1"/>
<circle cx="83" cy="144" r="6" fill="#F89724"/>
<path d="M72.08 129.224C71.344 129.224 70.704 129.091 70.16 128.824C69.6267 128.557 69.184 128.243 68.832 127.88L70.08 126.456C70.2933 126.701 70.5707 126.904 70.912 127.064C71.2533 127.224 71.6 127.304 71.952 127.304C72.2933 127.304 72.6187 127.229 72.928 127.08C73.2373 126.92 73.504 126.669 73.728 126.328C73.9627 125.976 74.144 125.512 74.272 124.936C74.4107 124.36 74.48 123.651 74.48 122.808C74.48 121.795 74.384 120.989 74.192 120.392C74.0107 119.795 73.7653 119.368 73.456 119.112C73.1467 118.845 72.7947 118.712 72.4 118.712C72.112 118.712 71.8453 118.792 71.6 118.952C71.3547 119.112 71.1573 119.352 71.008 119.672C70.8693 119.992 70.8 120.397 70.8 120.888C70.8 121.347 70.8693 121.731 71.008 122.04C71.1467 122.339 71.3387 122.563 71.584 122.712C71.84 122.861 72.1387 122.936 72.48 122.936C72.8107 122.936 73.152 122.835 73.504 122.632C73.856 122.429 74.176 122.088 74.464 121.608L74.576 123.192C74.3733 123.48 74.1227 123.731 73.824 123.944C73.536 124.157 73.2373 124.323 72.928 124.44C72.6187 124.557 72.32 124.616 72.032 124.616C71.3813 124.616 70.8 124.483 70.288 124.216C69.776 123.939 69.3707 123.528 69.072 122.984C68.784 122.429 68.64 121.731 68.64 120.888C68.64 120.077 68.8107 119.379 69.152 118.792C69.4933 118.195 69.9467 117.736 70.512 117.416C71.0773 117.096 71.696 116.936 72.368 116.936C72.9333 116.936 73.4667 117.053 73.968 117.288C74.48 117.512 74.9333 117.864 75.328 118.344C75.7333 118.813 76.048 119.421 76.272 120.168C76.5067 120.904 76.624 121.784 76.624 122.808C76.624 123.928 76.5013 124.893 76.256 125.704C76.0107 126.504 75.6693 127.165 75.232 127.688C74.8053 128.211 74.32 128.6 73.776 128.856C73.232 129.101 72.6667 129.224 72.08 129.224ZM82.1575 129.224C81.3575 129.224 80.6535 128.995 80.0455 128.536C79.4482 128.067 78.9788 127.373 78.6375 126.456C78.3068 125.528 78.1415 124.381 78.1415 123.016C78.1415 121.661 78.3068 120.536 78.6375 119.64C78.9788 118.733 79.4482 118.056 80.0455 117.608C80.6535 117.16 81.3575 116.936 82.1575 116.936C82.9682 116.936 83.6722 117.165 84.2695 117.624C84.8668 118.072 85.3308 118.744 85.6615 119.64C86.0028 120.536 86.1735 121.661 86.1735 123.016C86.1735 124.381 86.0028 125.528 85.6615 126.456C85.3308 127.373 84.8668 128.067 84.2695 128.536C83.6722 128.995 82.9682 129.224 82.1575 129.224ZM82.1575 127.384C82.5095 127.384 82.8188 127.251 83.0855 126.984C83.3522 126.717 83.5602 126.269 83.7095 125.64C83.8588 125 83.9335 124.125 83.9335 123.016C83.9335 121.917 83.8588 121.059 83.7095 120.44C83.5602 119.811 83.3522 119.373 83.0855 119.128C82.8188 118.872 82.5095 118.744 82.1575 118.744C81.8268 118.744 81.5228 118.872 81.2455 119.128C80.9788 119.373 80.7655 119.811 80.6055 120.44C80.4455 121.059 80.3655 121.917 80.3655 123.016C80.3655 124.125 80.4455 125 80.6055 125.64C80.7655 126.269 80.9788 126.717 81.2455 126.984C81.5228 127.251 81.8268 127.384 82.1575 127.384ZM89.851 129C89.9043 127.976 89.995 127.032 90.123 126.168C90.251 125.293 90.4323 124.472 90.667 123.704C90.9017 122.925 91.2057 122.163 91.579 121.416C91.963 120.669 92.4377 119.907 93.003 119.128H87.675V117.144H95.547V118.584C94.8643 119.416 94.3097 120.216 93.883 120.984C93.467 121.752 93.147 122.531 92.923 123.32C92.7097 124.109 92.5497 124.963 92.443 125.88C92.347 126.797 92.2723 127.837 92.219 129H89.851Z" fill="#F89724"/>
<path d="M137.08 125.224C136.344 125.224 135.704 125.091 135.16 124.824C134.627 124.557 134.184 124.243 133.832 123.88L135.08 122.456C135.293 122.701 135.571 122.904 135.912 123.064C136.253 123.224 136.6 123.304 136.952 123.304C137.293 123.304 137.619 123.229 137.928 123.08C138.237 122.92 138.504 122.669 138.728 122.328C138.963 121.976 139.144 121.512 139.272 120.936C139.411 120.36 139.48 119.651 139.48 118.808C139.48 117.795 139.384 116.989 139.192 116.392C139.011 115.795 138.765 115.368 138.456 115.112C138.147 114.845 137.795 114.712 137.4 114.712C137.112 114.712 136.845 114.792 136.6 114.952C136.355 115.112 136.157 115.352 136.008 115.672C135.869 115.992 135.8 116.397 135.8 116.888C135.8 117.347 135.869 117.731 136.008 118.04C136.147 118.339 136.339 118.563 136.584 118.712C136.84 118.861 137.139 118.936 137.48 118.936C137.811 118.936 138.152 118.835 138.504 118.632C138.856 118.429 139.176 118.088 139.464 117.608L139.576 119.192C139.373 119.48 139.123 119.731 138.824 119.944C138.536 120.157 138.237 120.323 137.928 120.44C137.619 120.557 137.32 120.616 137.032 120.616C136.381 120.616 135.8 120.483 135.288 120.216C134.776 119.939 134.371 119.528 134.072 118.984C133.784 118.429 133.64 117.731 133.64 116.888C133.64 116.077 133.811 115.379 134.152 114.792C134.493 114.195 134.947 113.736 135.512 113.416C136.077 113.096 136.696 112.936 137.368 112.936C137.933 112.936 138.467 113.053 138.968 113.288C139.48 113.512 139.933 113.864 140.328 114.344C140.733 114.813 141.048 115.421 141.272 116.168C141.507 116.904 141.624 117.784 141.624 118.808C141.624 119.928 141.501 120.893 141.256 121.704C141.011 122.504 140.669 123.165 140.232 123.688C139.805 124.211 139.32 124.6 138.776 124.856C138.232 125.101 137.667 125.224 137.08 125.224ZM143.75 125V123.08H146.31V115.608H144.15V114.136C144.747 114.029 145.259 113.901 145.686 113.752C146.123 113.592 146.528 113.389 146.902 113.144H148.646V123.08H150.87V125H143.75ZM156.931 125.224C156.376 125.224 155.838 125.107 155.315 124.872C154.803 124.637 154.35 124.28 153.955 123.8C153.56 123.309 153.246 122.691 153.011 121.944C152.787 121.187 152.675 120.285 152.675 119.24C152.675 118.141 152.798 117.192 153.043 116.392C153.299 115.592 153.64 114.941 154.067 114.44C154.494 113.928 154.979 113.549 155.523 113.304C156.078 113.059 156.659 112.936 157.267 112.936C157.992 112.936 158.616 113.069 159.139 113.336C159.672 113.592 160.115 113.907 160.467 114.28L159.219 115.688C159.016 115.453 158.75 115.251 158.419 115.08C158.088 114.909 157.752 114.824 157.411 114.824C156.931 114.824 156.494 114.963 156.099 115.24C155.715 115.517 155.406 115.976 155.171 116.616C154.936 117.256 154.819 118.131 154.819 119.24C154.819 120.264 154.91 121.085 155.091 121.704C155.283 122.312 155.534 122.755 155.843 123.032C156.152 123.309 156.499 123.448 156.883 123.448C157.182 123.448 157.448 123.368 157.683 123.208C157.928 123.037 158.126 122.792 158.275 122.472C158.424 122.141 158.499 121.736 158.499 121.256C158.499 120.787 158.424 120.403 158.275 120.104C158.136 119.805 157.939 119.581 157.683 119.432C157.438 119.283 157.144 119.208 156.803 119.208C156.483 119.208 156.147 119.309 155.795 119.512C155.443 119.704 155.118 120.045 154.819 120.536L154.707 118.952C154.92 118.653 155.171 118.397 155.459 118.184C155.758 117.971 156.062 117.811 156.371 117.704C156.691 117.597 156.979 117.544 157.235 117.544C157.896 117.544 158.483 117.677 158.995 117.944C159.518 118.211 159.923 118.616 160.211 119.16C160.499 119.704 160.643 120.403 160.643 121.256C160.643 122.067 160.472 122.771 160.131 123.368C159.8 123.955 159.352 124.413 158.787 124.744C158.222 125.064 157.603 125.224 156.931 125.224Z" fill="#F89724"/>
<path d="M202.08 114.224C201.344 114.224 200.704 114.091 200.16 113.824C199.627 113.557 199.184 113.243 198.832 112.88L200.08 111.456C200.293 111.701 200.571 111.904 200.912 112.064C201.253 112.224 201.6 112.304 201.952 112.304C202.293 112.304 202.619 112.229 202.928 112.08C203.237 111.92 203.504 111.669 203.728 111.328C203.963 110.976 204.144 110.512 204.272 109.936C204.411 109.36 204.48 108.651 204.48 107.808C204.48 106.795 204.384 105.989 204.192 105.392C204.011 104.795 203.765 104.368 203.456 104.112C203.147 103.845 202.795 103.712 202.4 103.712C202.112 103.712 201.845 103.792 201.6 103.952C201.355 104.112 201.157 104.352 201.008 104.672C200.869 104.992 200.8 105.397 200.8 105.888C200.8 106.347 200.869 106.731 201.008 107.04C201.147 107.339 201.339 107.563 201.584 107.712C201.84 107.861 202.139 107.936 202.48 107.936C202.811 107.936 203.152 107.835 203.504 107.632C203.856 107.429 204.176 107.088 204.464 106.608L204.576 108.192C204.373 108.48 204.123 108.731 203.824 108.944C203.536 109.157 203.237 109.323 202.928 109.44C202.619 109.557 202.32 109.616 202.032 109.616C201.381 109.616 200.8 109.483 200.288 109.216C199.776 108.939 199.371 108.528 199.072 107.984C198.784 107.429 198.64 106.731 198.64 105.888C198.64 105.077 198.811 104.379 199.152 103.792C199.493 103.195 199.947 102.736 200.512 102.416C201.077 102.096 201.696 101.936 202.368 101.936C202.933 101.936 203.467 102.053 203.968 102.288C204.48 102.512 204.933 102.864 205.328 103.344C205.733 103.813 206.048 104.421 206.272 105.168C206.507 105.904 206.624 106.784 206.624 107.808C206.624 108.928 206.501 109.893 206.256 110.704C206.011 111.504 205.669 112.165 205.232 112.688C204.805 113.211 204.32 113.6 203.776 113.856C203.232 114.101 202.667 114.224 202.08 114.224ZM211.518 114.224C210.782 114.224 210.142 114.091 209.598 113.824C209.064 113.557 208.622 113.243 208.27 112.88L209.518 111.456C209.731 111.701 210.008 111.904 210.35 112.064C210.691 112.224 211.038 112.304 211.39 112.304C211.731 112.304 212.056 112.229 212.366 112.08C212.675 111.92 212.942 111.669 213.166 111.328C213.4 110.976 213.582 110.512 213.71 109.936C213.848 109.36 213.918 108.651 213.918 107.808C213.918 106.795 213.822 105.989 213.63 105.392C213.448 104.795 213.203 104.368 212.894 104.112C212.584 103.845 212.232 103.712 211.838 103.712C211.55 103.712 211.283 103.792 211.038 103.952C210.792 104.112 210.595 104.352 210.446 104.672C210.307 104.992 210.238 105.397 210.238 105.888C210.238 106.347 210.307 106.731 210.446 107.04C210.584 107.339 210.776 107.563 211.022 107.712C211.278 107.861 211.576 107.936 211.918 107.936C212.248 107.936 212.59 107.835 212.942 107.632C213.294 107.429 213.614 107.088 213.902 106.608L214.014 108.192C213.811 108.48 213.56 108.731 213.262 108.944C212.974 109.157 212.675 109.323 212.366 109.44C212.056 109.557 211.758 109.616 211.47 109.616C210.819 109.616 210.238 109.483 209.726 109.216C209.214 108.939 208.808 108.528 208.51 107.984C208.222 107.429 208.078 106.731 208.078 105.888C208.078 105.077 208.248 104.379 208.59 103.792C208.931 103.195 209.384 102.736 209.95 102.416C210.515 102.096 211.134 101.936 211.806 101.936C212.371 101.936 212.904 102.053 213.406 102.288C213.918 102.512 214.371 102.864 214.766 103.344C215.171 103.813 215.486 104.421 215.71 105.168C215.944 105.904 216.062 106.784 216.062 107.808C216.062 108.928 215.939 109.893 215.694 110.704C215.448 111.504 215.107 112.165 214.67 112.688C214.243 113.211 213.758 113.6 213.214 113.856C212.67 114.101 212.104 114.224 211.518 114.224ZM217.563 114V112.64C218.64 111.68 219.558 110.789 220.315 109.968C221.083 109.147 221.67 108.384 222.075 107.68C222.48 106.965 222.683 106.304 222.683 105.696C222.683 105.312 222.614 104.976 222.475 104.688C222.336 104.4 222.134 104.181 221.867 104.032C221.611 103.872 221.291 103.792 220.907 103.792C220.48 103.792 220.086 103.915 219.723 104.16C219.371 104.395 219.046 104.677 218.747 105.008L217.435 103.744C217.99 103.147 218.555 102.699 219.131 102.4C219.718 102.091 220.411 101.936 221.211 101.936C221.958 101.936 222.608 102.091 223.163 102.4C223.728 102.699 224.166 103.12 224.475 103.664C224.784 104.208 224.939 104.848 224.939 105.584C224.939 106.299 224.758 107.029 224.395 107.776C224.043 108.512 223.568 109.248 222.971 109.984C222.374 110.72 221.712 111.445 220.987 112.16C221.296 112.117 221.627 112.085 221.979 112.064C222.342 112.032 222.662 112.016 222.939 112.016H225.499V114H217.563Z" fill="#F89724"/>
<path d="M260.312 105V103.08H262.872V95.608H260.712V94.136C261.309 94.0293 261.821 93.9013 262.248 93.752C262.685 93.592 263.091 93.3893 263.464 93.144H265.208V103.08H267.432V105H260.312ZM273.158 105.224C272.358 105.224 271.654 104.995 271.046 104.536C270.448 104.067 269.979 103.373 269.638 102.456C269.307 101.528 269.142 100.381 269.142 99.016C269.142 97.6613 269.307 96.536 269.638 95.64C269.979 94.7333 270.448 94.056 271.046 93.608C271.654 93.16 272.358 92.936 273.158 92.936C273.968 92.936 274.672 93.1653 275.27 93.624C275.867 94.072 276.331 94.744 276.661 95.64C277.003 96.536 277.174 97.6613 277.174 99.016C277.174 100.381 277.003 101.528 276.661 102.456C276.331 103.373 275.867 104.067 275.27 104.536C274.672 104.995 273.968 105.224 273.158 105.224ZM273.158 103.384C273.51 103.384 273.819 103.251 274.086 102.984C274.352 102.717 274.56 102.269 274.71 101.64C274.859 101 274.934 100.125 274.934 99.016C274.934 97.9173 274.859 97.0587 274.71 96.44C274.56 95.8107 274.352 95.3733 274.086 95.128C273.819 94.872 273.51 94.744 273.158 94.744C272.827 94.744 272.523 94.872 272.246 95.128C271.979 95.3733 271.766 95.8107 271.606 96.44C271.446 97.0587 271.366 97.9173 271.366 99.016C271.366 100.125 271.446 101 271.606 101.64C271.766 102.269 271.979 102.717 272.246 102.984C272.523 103.251 272.827 103.384 273.158 103.384ZM282.595 105.224C281.838 105.224 281.16 105.091 280.563 104.824C279.966 104.557 279.491 104.184 279.139 103.704C278.798 103.224 278.627 102.675 278.627 102.056C278.627 101.544 278.718 101.096 278.899 100.712C279.091 100.317 279.342 99.976 279.651 99.688C279.96 99.4 280.296 99.16 280.659 98.968V98.888C280.211 98.568 279.838 98.1787 279.539 97.72C279.24 97.2507 279.091 96.7067 279.091 96.088C279.091 95.448 279.246 94.8933 279.555 94.424C279.864 93.9547 280.286 93.592 280.819 93.336C281.363 93.08 281.976 92.952 282.659 92.952C283.363 92.952 283.971 93.0853 284.483 93.352C284.995 93.608 285.39 93.9707 285.667 94.44C285.955 94.9093 286.099 95.464 286.099 96.104C286.099 96.488 286.024 96.8507 285.875 97.192C285.736 97.5333 285.55 97.8427 285.315 98.12C285.091 98.3867 284.846 98.616 284.579 98.808V98.888C284.952 99.08 285.288 99.32 285.587 99.608C285.886 99.896 286.126 100.243 286.307 100.648C286.488 101.043 286.579 101.512 286.579 102.056C286.579 102.653 286.408 103.192 286.067 103.672C285.736 104.152 285.272 104.531 284.675 104.808C284.078 105.085 283.384 105.224 282.595 105.224ZM283.331 98.232C283.619 97.9227 283.832 97.6027 283.971 97.272C284.11 96.9413 284.179 96.6 284.179 96.248C284.179 95.928 284.115 95.6453 283.987 95.4C283.87 95.144 283.694 94.9467 283.459 94.808C283.224 94.6693 282.942 94.6 282.611 94.6C282.206 94.6 281.864 94.728 281.587 94.984C281.31 95.24 281.171 95.608 281.171 96.088C281.171 96.4507 281.262 96.7653 281.443 97.032C281.635 97.288 281.896 97.512 282.227 97.704C282.558 97.8853 282.926 98.0613 283.331 98.232ZM282.643 103.56C282.984 103.56 283.283 103.501 283.539 103.384C283.806 103.256 284.014 103.075 284.163 102.84C284.312 102.595 284.387 102.307 284.387 101.976C284.387 101.667 284.318 101.4 284.179 101.176C284.051 100.941 283.87 100.739 283.635 100.568C283.4 100.387 283.123 100.221 282.803 100.072C282.483 99.9227 282.131 99.7627 281.747 99.592C281.427 99.8587 281.166 100.184 280.963 100.568C280.76 100.941 280.659 101.352 280.659 101.8C280.659 102.152 280.744 102.461 280.915 102.728C281.096 102.984 281.336 103.187 281.635 103.336C281.934 103.485 282.27 103.56 282.643 103.56ZM292.369 105.224C291.814 105.224 291.275 105.107 290.753 104.872C290.241 104.637 289.787 104.28 289.393 103.8C288.998 103.309 288.683 102.691 288.449 101.944C288.225 101.187 288.113 100.285 288.113 99.24C288.113 98.1413 288.235 97.192 288.481 96.392C288.737 95.592 289.078 94.9413 289.505 94.44C289.931 93.928 290.417 93.5493 290.961 93.304C291.515 93.0587 292.097 92.936 292.705 92.936C293.43 92.936 294.054 93.0693 294.577 93.336C295.11 93.592 295.553 93.9067 295.905 94.28L294.657 95.688C294.454 95.4533 294.187 95.2507 293.857 95.08C293.526 94.9093 293.19 94.824 292.849 94.824C292.369 94.824 291.931 94.9627 291.536 95.24C291.153 95.5173 290.843 95.976 290.609 96.616C290.374 97.256 290.257 98.1307 290.257 99.24C290.257 100.264 290.347 101.085 290.529 101.704C290.721 102.312 290.971 102.755 291.281 103.032C291.59 103.309 291.937 103.448 292.321 103.448C292.619 103.448 292.886 103.368 293.121 103.208C293.366 103.037 293.563 102.792 293.713 102.472C293.862 102.141 293.937 101.736 293.937 101.256C293.937 100.787 293.862 100.403 293.713 100.104C293.574 99.8053 293.377 99.5813 293.121 99.432C292.875 99.2827 292.582 99.208 292.241 99.208C291.921 99.208 291.585 99.3093 291.233 99.512C290.881 99.704 290.555 100.045 290.257 100.536L290.145 98.952C290.358 98.6533 290.609 98.3973 290.897 98.184C291.195 97.9707 291.499 97.8107 291.809 97.704C292.129 97.5973 292.417 97.544 292.673 97.544C293.334 97.544 293.921 97.6773 294.433 97.944C294.955 98.2107 295.361 98.616 295.649 99.16C295.937 99.704 296.081 100.403 296.081 101.256C296.081 102.067 295.91 102.771 295.569 103.368C295.238 103.955 294.79 104.413 294.225 104.744C293.659 105.064 293.041 105.224 292.369 105.224Z" fill="#F89724"/>
<path d="M325.312 91V89.08H327.872V81.608H325.712V80.136C326.309 80.0293 326.821 79.9013 327.248 79.752C327.685 79.592 328.091 79.3893 328.464 79.144H330.208V89.08H332.432V91H325.312ZM334.75 91V89.08H337.31V81.608H335.15V80.136C335.747 80.0293 336.259 79.9013 336.686 79.752C337.123 79.592 337.528 79.3893 337.902 79.144H339.646V89.08H341.87V91H334.75ZM347.243 91.224C346.624 91.224 346.07 91.1493 345.579 91C345.088 90.8613 344.651 90.6693 344.267 90.424C343.894 90.168 343.568 89.8853 343.291 89.576L344.395 88.088C344.758 88.4187 345.152 88.7067 345.579 88.952C346.016 89.1867 346.502 89.304 347.035 89.304C347.44 89.304 347.792 89.24 348.091 89.112C348.4 88.984 348.635 88.7973 348.795 88.552C348.966 88.3067 349.051 88.008 349.051 87.656C349.051 87.2613 348.955 86.9253 348.763 86.648C348.582 86.36 348.256 86.1413 347.787 85.992C347.318 85.8427 346.656 85.768 345.803 85.768V84.072C346.528 84.072 347.099 83.9973 347.515 83.848C347.931 83.688 348.224 83.4747 348.395 83.208C348.576 82.9307 348.667 82.616 348.667 82.264C348.667 81.8053 348.528 81.448 348.251 81.192C347.974 80.9253 347.584 80.792 347.083 80.792C346.667 80.792 346.278 80.888 345.915 81.08C345.563 81.2613 345.211 81.512 344.859 81.832L343.643 80.376C344.166 79.9387 344.715 79.592 345.291 79.336C345.867 79.0693 346.502 78.936 347.195 78.936C347.952 78.936 348.619 79.0587 349.195 79.304C349.782 79.5493 350.235 79.9067 350.555 80.376C350.875 80.8453 351.035 81.416 351.035 82.088C351.035 82.728 350.864 83.2773 350.523 83.736C350.182 84.1947 349.696 84.5467 349.067 84.792V84.872C349.504 84.9893 349.899 85.1813 350.251 85.448C350.614 85.704 350.896 86.0293 351.099 86.424C351.312 86.8187 351.419 87.2773 351.419 87.8C351.419 88.5147 351.227 89.128 350.843 89.64C350.47 90.152 349.963 90.5467 349.323 90.824C348.694 91.0907 348 91.224 347.243 91.224ZM356.393 91.224C355.657 91.224 355.017 91.0907 354.473 90.824C353.939 90.5573 353.497 90.2427 353.145 89.88L354.393 88.456C354.606 88.7013 354.883 88.904 355.225 89.064C355.566 89.224 355.913 89.304 356.265 89.304C356.606 89.304 356.931 89.2293 357.241 89.08C357.55 88.92 357.817 88.6693 358.041 88.328C358.275 87.976 358.457 87.512 358.585 86.936C358.723 86.36 358.793 85.6507 358.793 84.808C358.793 83.7947 358.697 82.9893 358.505 82.392C358.323 81.7947 358.078 81.368 357.769 81.112C357.459 80.8453 357.107 80.712 356.713 80.712C356.425 80.712 356.158 80.792 355.913 80.952C355.667 81.112 355.47 81.352 355.321 81.672C355.182 81.992 355.113 82.3973 355.113 82.888C355.113 83.3467 355.182 83.7307 355.321 84.04C355.459 84.3387 355.651 84.5627 355.897 84.712C356.153 84.8613 356.451 84.936 356.793 84.936C357.123 84.936 357.465 84.8347 357.817 84.632C358.169 84.4293 358.489 84.088 358.777 83.608L358.889 85.192C358.686 85.48 358.435 85.7307 358.137 85.944C357.849 86.1573 357.55 86.3227 357.241 86.44C356.931 86.5573 356.633 86.616 356.345 86.616C355.694 86.616 355.113 86.4827 354.601 86.216C354.089 85.9387 353.683 85.528 353.385 84.984C353.097 84.4293 352.953 83.7307 352.953 82.888C352.953 82.0773 353.123 81.3787 353.465 80.792C353.806 80.1947 354.259 79.736 354.825 79.416C355.39 79.096 356.009 78.936 356.681 78.936C357.246 78.936 357.779 79.0533 358.281 79.288C358.793 79.512 359.246 79.864 359.641 80.344C360.046 80.8133 360.361 81.4213 360.585 82.168C360.819 82.904 360.937 83.784 360.937 84.808C360.937 85.928 360.814 86.8933 360.569 87.704C360.323 88.504 359.982 89.1653 359.545 89.688C359.118 90.2107 358.633 90.6 358.089 90.856C357.545 91.1013 356.979 91.224 356.393 91.224Z" fill="#F89724"/>
<path d="M390.312 82V80.08H392.872V72.608H390.712V71.136C391.309 71.0293 391.821 70.9013 392.248 70.752C392.685 70.592 393.091 70.3893 393.464 70.144H395.208V80.08H397.432V82H390.312ZM399.126 82V80.64C400.203 79.68 401.12 78.7893 401.878 77.968C402.646 77.1467 403.232 76.384 403.638 75.68C404.043 74.9653 404.246 74.304 404.246 73.696C404.246 73.312 404.176 72.976 404.038 72.688C403.899 72.4 403.696 72.1813 403.43 72.032C403.174 71.872 402.854 71.792 402.47 71.792C402.043 71.792 401.648 71.9147 401.286 72.16C400.934 72.3947 400.608 72.6773 400.31 73.008L398.998 71.744C399.552 71.1467 400.118 70.6987 400.694 70.4C401.28 70.0907 401.974 69.936 402.774 69.936C403.52 69.936 404.171 70.0907 404.726 70.4C405.291 70.6987 405.728 71.12 406.038 71.664C406.347 72.208 406.502 72.848 406.502 73.584C406.502 74.2987 406.32 75.0293 405.958 75.776C405.606 76.512 405.131 77.248 404.534 77.984C403.936 78.72 403.275 79.4453 402.549 80.16C402.859 80.1173 403.19 80.0853 403.542 80.064C403.904 80.032 404.224 80.016 404.502 80.016H407.062V82H399.126ZM409.187 82V80.08H411.747V72.608H409.587V71.136C410.184 71.0293 410.696 70.9013 411.123 70.752C411.56 70.592 411.966 70.3893 412.339 70.144H414.083V80.08H416.307V82H409.187ZM418.625 82V80.08H421.185V72.608H419.025V71.136C419.622 71.0293 420.134 70.9013 420.561 70.752C420.998 70.592 421.403 70.3893 421.777 70.144H423.521V80.08H425.745V82H418.625Z" fill="#F89724"/>
<path d="M455.312 71V69.08H457.872V61.608H455.712V60.136C456.309 60.0293 456.821 59.9013 457.248 59.752C457.685 59.592 458.091 59.3893 458.464 59.144H460.208V69.08H462.432V71H455.312ZM467.806 71.224C467.187 71.224 466.632 71.1493 466.142 71C465.651 70.8613 465.214 70.6693 464.83 70.424C464.456 70.168 464.131 69.8853 463.854 69.576L464.958 68.088C465.32 68.4187 465.715 68.7067 466.142 68.952C466.579 69.1867 467.064 69.304 467.598 69.304C468.003 69.304 468.355 69.24 468.654 69.112C468.963 68.984 469.198 68.7973 469.358 68.552C469.528 68.3067 469.614 68.008 469.614 67.656C469.614 67.2613 469.518 66.9253 469.326 66.648C469.144 66.36 468.819 66.1413 468.35 65.992C467.88 65.8427 467.219 65.768 466.366 65.768V64.072C467.091 64.072 467.662 63.9973 468.078 63.848C468.494 63.688 468.787 63.4747 468.958 63.208C469.139 62.9307 469.23 62.616 469.23 62.264C469.23 61.8053 469.091 61.448 468.814 61.192C468.536 60.9253 468.147 60.792 467.646 60.792C467.23 60.792 466.84 60.888 466.478 61.08C466.126 61.2613 465.774 61.512 465.422 61.832L464.206 60.376C464.728 59.9387 465.278 59.592 465.854 59.336C466.43 59.0693 467.064 58.936 467.758 58.936C468.515 58.936 469.182 59.0587 469.758 59.304C470.344 59.5493 470.798 59.9067 471.118 60.376C471.438 60.8453 471.598 61.416 471.598 62.088C471.598 62.728 471.427 63.2773 471.086 63.736C470.744 64.1947 470.259 64.5467 469.63 64.792V64.872C470.067 64.9893 470.462 65.1813 470.814 65.448C471.176 65.704 471.459 66.0293 471.661 66.424C471.875 66.8187 471.982 67.2773 471.982 67.8C471.982 68.5147 471.79 69.128 471.406 69.64C471.032 70.152 470.526 70.5467 469.886 70.824C469.256 71.0907 468.563 71.224 467.806 71.224ZM477.307 71.224C476.678 71.224 476.118 71.1493 475.627 71C475.136 70.8507 474.699 70.6533 474.315 70.408C473.931 70.1627 473.59 69.896 473.291 69.608L474.379 68.104C474.603 68.328 474.843 68.5307 475.099 68.712C475.366 68.8933 475.654 69.0373 475.963 69.144C476.283 69.2507 476.624 69.304 476.987 69.304C477.392 69.304 477.75 69.2187 478.059 69.048C478.379 68.8773 478.63 68.632 478.811 68.312C478.992 67.9813 479.083 67.5867 479.083 67.128C479.083 66.4453 478.896 65.9173 478.523 65.544C478.16 65.1707 477.68 64.984 477.083 64.984C476.742 64.984 476.448 65.032 476.203 65.128C475.958 65.2133 475.659 65.368 475.307 65.592L474.235 64.904L474.555 59.144H480.891V61.128H476.587L476.363 63.64C476.598 63.5333 476.827 63.4533 477.051 63.4C477.275 63.3467 477.52 63.32 477.787 63.32C478.448 63.32 479.056 63.4533 479.611 63.72C480.166 63.976 480.608 64.3813 480.939 64.936C481.27 65.4907 481.435 66.2 481.435 67.064C481.435 67.9387 481.238 68.6907 480.843 69.32C480.459 69.9387 479.952 70.4133 479.323 70.744C478.704 71.064 478.032 71.224 477.307 71.224ZM483.625 71V69.08H486.185V61.608H484.025V60.136C484.622 60.0293 485.134 59.9013 485.561 59.752C485.998 59.592 486.403 59.3893 486.777 59.144H488.521V69.08H490.745V71H483.625Z" fill="#F89724"/>
<path d="M520.312 61V59.08H522.872V51.608H520.712V50.136C521.309 50.0293 521.821 49.9013 522.248 49.752C522.685 49.592 523.091 49.3893 523.464 49.144H525.208V59.08H527.432V61H520.312ZM533.83 61V53.72C533.83 53.3787 533.84 52.9733 533.862 52.504C533.883 52.024 533.904 51.608 533.926 51.256H533.846C533.707 51.576 533.558 51.896 533.398 52.216C533.238 52.536 533.072 52.8613 532.902 53.192L531.062 56.136H537.43V57.928H528.774V56.328L533.19 49.144H536.022V61H533.83ZM541.955 61.224C541.219 61.224 540.579 61.0907 540.035 60.824C539.502 60.5573 539.059 60.2427 538.707 59.88L539.955 58.456C540.168 58.7013 540.446 58.904 540.787 59.064C541.128 59.224 541.475 59.304 541.827 59.304C542.168 59.304 542.494 59.2293 542.803 59.08C543.112 58.92 543.379 58.6693 543.603 58.328C543.838 57.976 544.019 57.512 544.147 56.936C544.286 56.36 544.355 55.6507 544.355 54.808C544.355 53.7947 544.259 52.9893 544.067 52.392C543.886 51.7947 543.64 51.368 543.331 51.112C543.022 50.8453 542.67 50.712 542.275 50.712C541.987 50.712 541.72 50.792 541.475 50.952C541.23 51.112 541.032 51.352 540.883 51.672C540.744 51.992 540.675 52.3973 540.675 52.888C540.675 53.3467 540.744 53.7307 540.883 54.04C541.022 54.3387 541.214 54.5627 541.459 54.712C541.715 54.8613 542.014 54.936 542.355 54.936C542.686 54.936 543.027 54.8347 543.379 54.632C543.731 54.4293 544.051 54.088 544.339 53.608L544.451 55.192C544.248 55.48 543.998 55.7307 543.699 55.944C543.411 56.1573 543.112 56.3227 542.803 56.44C542.494 56.5573 542.195 56.616 541.907 56.616C541.256 56.616 540.675 56.4827 540.163 56.216C539.651 55.9387 539.246 55.528 538.947 54.984C538.659 54.4293 538.515 53.7307 538.515 52.888C538.515 52.0773 538.686 51.3787 539.027 50.792C539.368 50.1947 539.822 49.736 540.387 49.416C540.952 49.096 541.571 48.936 542.243 48.936C542.808 48.936 543.342 49.0533 543.843 49.288C544.355 49.512 544.808 49.864 545.203 50.344C545.608 50.8133 545.923 51.4213 546.147 52.168C546.382 52.904 546.499 53.784 546.499 54.808C546.499 55.928 546.376 56.8933 546.131 57.704C545.886 58.504 545.544 59.1653 545.107 59.688C544.68 60.2107 544.195 60.6 543.651 60.856C543.107 61.1013 542.542 61.224 541.955 61.224ZM552.033 61.224C551.275 61.224 550.598 61.0907 550.001 60.824C549.403 60.5573 548.929 60.184 548.577 59.704C548.235 59.224 548.065 58.6747 548.065 58.056C548.065 57.544 548.155 57.096 548.337 56.712C548.529 56.3173 548.779 55.976 549.089 55.688C549.398 55.4 549.734 55.16 550.097 54.968V54.888C549.649 54.568 549.275 54.1787 548.977 53.72C548.678 53.2507 548.529 52.7067 548.529 52.088C548.529 51.448 548.683 50.8933 548.993 50.424C549.302 49.9547 549.723 49.592 550.257 49.336C550.801 49.08 551.414 48.952 552.097 48.952C552.801 48.952 553.409 49.0853 553.921 49.352C554.433 49.608 554.827 49.9707 555.105 50.44C555.393 50.9093 555.536 51.464 555.536 52.104C555.536 52.488 555.462 52.8507 555.312 53.192C555.174 53.5333 554.987 53.8427 554.753 54.12C554.529 54.3867 554.283 54.616 554.017 54.808V54.888C554.39 55.08 554.726 55.32 555.025 55.608C555.323 55.896 555.563 56.2427 555.745 56.648C555.926 57.0427 556.017 57.512 556.017 58.056C556.017 58.6533 555.846 59.192 555.505 59.672C555.174 60.152 554.71 60.5307 554.113 60.808C553.515 61.0853 552.822 61.224 552.033 61.224ZM552.769 54.232C553.057 53.9227 553.27 53.6027 553.409 53.272C553.547 52.9413 553.617 52.6 553.617 52.248C553.617 51.928 553.553 51.6453 553.425 51.4C553.307 51.144 553.131 50.9467 552.897 50.808C552.662 50.6693 552.379 50.6 552.049 50.6C551.643 50.6 551.302 50.728 551.025 50.984C550.747 51.24 550.609 51.608 550.609 52.088C550.609 52.4507 550.699 52.7653 550.881 53.032C551.073 53.288 551.334 53.512 551.665 53.704C551.995 53.8853 552.363 54.0613 552.769 54.232ZM552.081 59.56C552.422 59.56 552.721 59.5013 552.977 59.384C553.243 59.256 553.451 59.0747 553.601 58.84C553.75 58.5947 553.825 58.3067 553.825 57.976C553.825 57.6667 553.755 57.4 553.617 57.176C553.489 56.9413 553.307 56.7387 553.073 56.568C552.838 56.3867 552.561 56.2213 552.241 56.072C551.921 55.9227 551.569 55.7627 551.185 55.592C550.865 55.8587 550.603 56.184 550.401 56.568C550.198 56.9413 550.097 57.352 550.097 57.8C550.097 58.152 550.182 58.4613 550.353 58.728C550.534 58.984 550.774 59.1867 551.073 59.336C551.371 59.4853 551.707 59.56 552.081 59.56Z" fill="#F89724"/>
<path d="M585.312 39V37.08H587.872V29.608H585.712V28.136C586.309 28.0293 586.821 27.9013 587.248 27.752C587.685 27.592 588.091 27.3893 588.464 27.144H590.208V37.08H592.432V39H585.312ZM598.494 39.224C597.939 39.224 597.4 39.1067 596.878 38.872C596.366 38.6373 595.912 38.28 595.518 37.8C595.123 37.3093 594.808 36.6907 594.574 35.944C594.35 35.1867 594.238 34.2853 594.238 33.24C594.238 32.1413 594.36 31.192 594.606 30.392C594.862 29.592 595.203 28.9413 595.63 28.44C596.056 27.928 596.542 27.5493 597.086 27.304C597.64 27.0587 598.222 26.936 598.83 26.936C599.555 26.936 600.179 27.0693 600.702 27.336C601.235 27.592 601.678 27.9067 602.03 28.28L600.782 29.688C600.579 29.4533 600.312 29.2507 599.982 29.08C599.651 28.9093 599.315 28.824 598.974 28.824C598.494 28.824 598.056 28.9627 597.661 29.24C597.278 29.5173 596.968 29.976 596.734 30.616C596.499 31.256 596.382 32.1307 596.382 33.24C596.382 34.264 596.472 35.0853 596.654 35.704C596.846 36.312 597.096 36.7547 597.406 37.032C597.715 37.3093 598.062 37.448 598.446 37.448C598.744 37.448 599.011 37.368 599.246 37.208C599.491 37.0373 599.688 36.792 599.838 36.472C599.987 36.1413 600.062 35.736 600.062 35.256C600.062 34.7867 599.987 34.4027 599.838 34.104C599.699 33.8053 599.502 33.5813 599.246 33.432C599 33.2827 598.707 33.208 598.366 33.208C598.046 33.208 597.71 33.3093 597.358 33.512C597.006 33.704 596.68 34.0453 596.382 34.536L596.27 32.952C596.483 32.6533 596.734 32.3973 597.022 32.184C597.32 31.9707 597.624 31.8107 597.934 31.704C598.254 31.5973 598.542 31.544 598.798 31.544C599.459 31.544 600.046 31.6773 600.558 31.944C601.08 32.2107 601.486 32.616 601.774 33.16C602.062 33.704 602.206 34.4027 602.206 35.256C602.206 36.0667 602.035 36.7707 601.694 37.368C601.363 37.9547 600.915 38.4133 600.35 38.744C599.784 39.064 599.166 39.224 598.494 39.224ZM607.595 39.224C606.795 39.224 606.091 38.9947 605.483 38.536C604.886 38.0667 604.416 37.3733 604.075 36.456C603.744 35.528 603.579 34.3813 603.579 33.016C603.579 31.6613 603.744 30.536 604.075 29.64C604.416 28.7333 604.886 28.056 605.483 27.608C606.091 27.16 606.795 26.936 607.595 26.936C608.406 26.936 609.11 27.1653 609.707 27.624C610.304 28.072 610.768 28.744 611.099 29.64C611.44 30.536 611.611 31.6613 611.611 33.016C611.611 34.3813 611.44 35.528 611.099 36.456C610.768 37.3733 610.304 38.0667 609.707 38.536C609.11 38.9947 608.406 39.224 607.595 39.224ZM607.595 37.384C607.947 37.384 608.256 37.2507 608.523 36.984C608.79 36.7173 608.998 36.2693 609.147 35.64C609.296 35 609.371 34.1253 609.371 33.016C609.371 31.9173 609.296 31.0587 609.147 30.44C608.998 29.8107 608.79 29.3733 608.523 29.128C608.256 28.872 607.947 28.744 607.595 28.744C607.264 28.744 606.96 28.872 606.683 29.128C606.416 29.3733 606.203 29.8107 606.043 30.44C605.883 31.0587 605.803 31.9173 605.803 33.016C605.803 34.1253 605.883 35 606.043 35.64C606.203 36.2693 606.416 36.7173 606.683 36.984C606.96 37.2507 607.264 37.384 607.595 37.384ZM616.681 39.224C616.062 39.224 615.507 39.1493 615.017 39C614.526 38.8613 614.089 38.6693 613.705 38.424C613.331 38.168 613.006 37.8853 612.729 37.576L613.833 36.088C614.195 36.4187 614.59 36.7067 615.017 36.952C615.454 37.1867 615.939 37.304 616.473 37.304C616.878 37.304 617.23 37.24 617.529 37.112C617.838 36.984 618.073 36.7973 618.233 36.552C618.403 36.3067 618.489 36.008 618.489 35.656C618.489 35.2613 618.393 34.9253 618.201 34.648C618.019 34.36 617.694 34.1413 617.225 33.992C616.755 33.8427 616.094 33.768 615.241 33.768V32.072C615.966 32.072 616.537 31.9973 616.953 31.848C617.369 31.688 617.662 31.4747 617.833 31.208C618.014 30.9307 618.105 30.616 618.105 30.264C618.105 29.8053 617.966 29.448 617.689 29.192C617.411 28.9253 617.022 28.792 616.521 28.792C616.105 28.792 615.715 28.888 615.353 29.08C615.001 29.2613 614.649 29.512 614.297 29.832L613.081 28.376C613.603 27.9387 614.153 27.592 614.729 27.336C615.305 27.0693 615.939 26.936 616.633 26.936C617.39 26.936 618.057 27.0587 618.633 27.304C619.219 27.5493 619.673 27.9067 619.993 28.376C620.313 28.8453 620.473 29.416 620.473 30.088C620.473 30.728 620.302 31.2773 619.961 31.736C619.619 32.1947 619.134 32.5467 618.505 32.792V32.872C618.942 32.9893 619.337 33.1813 619.689 33.448C620.051 33.704 620.334 34.0293 620.536 34.424C620.75 34.8187 620.857 35.2773 620.857 35.8C620.857 36.5147 620.665 37.128 620.281 37.64C619.907 38.152 619.401 38.5467 618.761 38.824C618.131 39.0907 617.438 39.224 616.681 39.224Z" fill="#F89724"/>
<path d="M650.312 30V28.08H652.872V20.608H650.712V19.136C651.309 19.0293 651.821 18.9013 652.248 18.752C652.685 18.592 653.091 18.3893 653.464 18.144H655.208V28.08H657.432V30H650.312ZM663.494 30.224C662.939 30.224 662.4 30.1067 661.878 29.872C661.366 29.6373 660.912 29.28 660.518 28.8C660.123 28.3093 659.808 27.6907 659.574 26.944C659.35 26.1867 659.238 25.2853 659.238 24.24C659.238 23.1413 659.36 22.192 659.606 21.392C659.862 20.592 660.203 19.9413 660.63 19.44C661.056 18.928 661.542 18.5493 662.086 18.304C662.64 18.0587 663.222 17.936 663.83 17.936C664.555 17.936 665.179 18.0693 665.702 18.336C666.235 18.592 666.678 18.9067 667.03 19.28L665.782 20.688C665.579 20.4533 665.312 20.2507 664.982 20.08C664.651 19.9093 664.315 19.824 663.974 19.824C663.494 19.824 663.056 19.9627 662.661 20.24C662.278 20.5173 661.968 20.976 661.734 21.616C661.499 22.256 661.382 23.1307 661.382 24.24C661.382 25.264 661.472 26.0853 661.654 26.704C661.846 27.312 662.096 27.7547 662.406 28.032C662.715 28.3093 663.062 28.448 663.446 28.448C663.744 28.448 664.011 28.368 664.246 28.208C664.491 28.0373 664.688 27.792 664.838 27.472C664.987 27.1413 665.062 26.736 665.062 26.256C665.062 25.7867 664.987 25.4027 664.838 25.104C664.699 24.8053 664.502 24.5813 664.246 24.432C664 24.2827 663.707 24.208 663.366 24.208C663.046 24.208 662.71 24.3093 662.358 24.512C662.006 24.704 661.68 25.0453 661.382 25.536L661.27 23.952C661.483 23.6533 661.734 23.3973 662.022 23.184C662.32 22.9707 662.624 22.8107 662.934 22.704C663.254 22.5973 663.542 22.544 663.798 22.544C664.459 22.544 665.046 22.6773 665.558 22.944C666.08 23.2107 666.486 23.616 666.774 24.16C667.062 24.704 667.206 25.4027 667.206 26.256C667.206 27.0667 667.035 27.7707 666.694 28.368C666.363 28.9547 665.915 29.4133 665.35 29.744C664.784 30.064 664.166 30.224 663.494 30.224ZM670.851 30C670.904 28.976 670.995 28.032 671.123 27.168C671.251 26.2933 671.432 25.472 671.667 24.704C671.902 23.9253 672.206 23.1627 672.579 22.416C672.963 21.6693 673.438 20.9067 674.003 20.128H668.675V18.144H676.547V19.584C675.864 20.416 675.31 21.216 674.883 21.984C674.467 22.752 674.147 23.5307 673.923 24.32C673.71 25.1093 673.55 25.9627 673.443 26.88C673.347 27.7973 673.272 28.8373 673.219 30H670.851ZM678.001 30V28.64C679.078 27.68 679.995 26.7893 680.753 25.968C681.521 25.1467 682.107 24.384 682.513 23.68C682.918 22.9653 683.121 22.304 683.121 21.696C683.121 21.312 683.051 20.976 682.913 20.688C682.774 20.4 682.571 20.1813 682.305 20.032C682.049 19.872 681.729 19.792 681.345 19.792C680.918 19.792 680.523 19.9147 680.161 20.16C679.809 20.3947 679.483 20.6773 679.185 21.008L677.873 19.744C678.427 19.1467 678.993 18.6987 679.569 18.4C680.155 18.0907 680.849 17.936 681.649 17.936C682.395 17.936 683.046 18.0907 683.601 18.4C684.166 18.6987 684.603 19.12 684.913 19.664C685.222 20.208 685.377 20.848 685.377 21.584C685.377 22.2987 685.195 23.0293 684.833 23.776C684.481 24.512 684.006 25.248 683.409 25.984C682.811 26.72 682.15 27.4453 681.424 28.16C681.734 28.1173 682.065 28.0853 682.417 28.064C682.779 28.032 683.099 28.016 683.377 28.016H685.937V30H678.001Z" fill="#F89724"/>
<path d="M715.312 23V21.08H717.872V13.608H715.712V12.136C716.309 12.0293 716.821 11.9013 717.248 11.752C717.685 11.592 718.091 11.3893 718.464 11.144H720.208V21.08H722.432V23H715.312ZM726.414 23C726.467 21.976 726.558 21.032 726.686 20.168C726.814 19.2933 726.995 18.472 727.23 17.704C727.464 16.9253 727.768 16.1627 728.141 15.416C728.526 14.6693 729 13.9067 729.566 13.128H724.238V11.144H732.11V12.584C731.427 13.416 730.872 14.216 730.446 14.984C730.03 15.752 729.71 16.5307 729.486 17.32C729.272 18.1093 729.112 18.9627 729.006 19.88C728.91 20.7973 728.835 21.8373 728.782 23H726.414ZM737.595 23.224C736.795 23.224 736.091 22.9947 735.483 22.536C734.886 22.0667 734.416 21.3733 734.075 20.456C733.744 19.528 733.579 18.3813 733.579 17.016C733.579 15.6613 733.744 14.536 734.075 13.64C734.416 12.7333 734.886 12.056 735.483 11.608C736.091 11.16 736.795 10.936 737.595 10.936C738.406 10.936 739.11 11.1653 739.707 11.624C740.304 12.072 740.768 12.744 741.099 13.64C741.44 14.536 741.611 15.6613 741.611 17.016C741.611 18.3813 741.44 19.528 741.099 20.456C740.768 21.3733 740.304 22.0667 739.707 22.536C739.11 22.9947 738.406 23.224 737.595 23.224ZM737.595 21.384C737.947 21.384 738.256 21.2507 738.523 20.984C738.79 20.7173 738.998 20.2693 739.147 19.64C739.296 19 739.371 18.1253 739.371 17.016C739.371 15.9173 739.296 15.0587 739.147 14.44C738.998 13.8107 738.79 13.3733 738.523 13.128C738.256 12.872 737.947 12.744 737.595 12.744C737.264 12.744 736.96 12.872 736.683 13.128C736.416 13.3733 736.203 13.8107 736.043 14.44C735.883 15.0587 735.803 15.9173 735.803 17.016C735.803 18.1253 735.883 19 736.043 19.64C736.203 20.2693 736.416 20.7173 736.683 20.984C736.96 21.2507 737.264 21.384 737.595 21.384ZM747.033 23.224C746.233 23.224 745.529 22.9947 744.921 22.536C744.323 22.0667 743.854 21.3733 743.513 20.456C743.182 19.528 743.017 18.3813 743.017 17.016C743.017 15.6613 743.182 14.536 743.513 13.64C743.854 12.7333 744.323 12.056 744.921 11.608C745.529 11.16 746.233 10.936 747.033 10.936C747.843 10.936 748.547 11.1653 749.145 11.624C749.742 12.072 750.206 12.744 750.536 13.64C750.878 14.536 751.049 15.6613 751.049 17.016C751.049 18.3813 750.878 19.528 750.536 20.456C750.206 21.3733 749.742 22.0667 749.145 22.536C748.547 22.9947 747.843 23.224 747.033 23.224ZM747.033 21.384C747.385 21.384 747.694 21.2507 747.961 20.984C748.227 20.7173 748.435 20.2693 748.585 19.64C748.734 19 748.809 18.1253 748.809 17.016C748.809 15.9173 748.734 15.0587 748.585 14.44C748.435 13.8107 748.227 13.3733 747.961 13.128C747.694 12.872 747.385 12.744 747.033 12.744C746.702 12.744 746.398 12.872 746.121 13.128C745.854 13.3733 745.641 13.8107 745.481 14.44C745.321 15.0587 745.241 15.9173 745.241 17.016C745.241 18.1253 745.321 19 745.481 19.64C745.641 20.2693 745.854 20.7173 746.121 20.984C746.398 21.2507 746.702 21.384 747.033 21.384Z" fill="#F89724"/>
<circle cx="148" cy="140" r="6" fill="#F89724"/>
<circle cx="213" cy="129" r="6" fill="#F89724"/>
<circle cx="278" cy="120" r="6" fill="#F89724"/>
<circle cx="343" cy="106" r="6" fill="#F89724"/>
<circle cx="408" cy="97" r="6" fill="#F89724"/>
<circle cx="473" cy="86" r="6" fill="#F89724"/>
<circle cx="538" cy="76" r="6" fill="#F89724"/>
<circle cx="603" cy="54" r="6" fill="#F89724"/>
<circle cx="668" cy="45" r="6" fill="#F89724"/>
<circle cx="733" cy="38" r="6" fill="#F89724"/>
<line x1="83.9693" y1="143.501" x2="147.848" y2="139.57" stroke="#F89724"/>
<line x1="150.92" y1="139.506" x2="212.92" y2="129.506" stroke="#F89724"/>
<line x1="216.943" y1="128.503" x2="277.943" y2="121.503" stroke="#F89724"/>
<line x1="280.896" y1="119.511" x2="341.896" y2="106.511" stroke="#F89724"/>
<line x1="344.945" y1="104.503" x2="407.945" y2="97.5031" stroke="#F89724"/>
<line x1="409.929" y1="96.505" x2="472.929" y2="87.505" stroke="#F89724"/>
<line x1="475.913" y1="86.5077" x2="537.913" y2="75.5077" stroke="#F89724"/>
<line x1="540.853" y1="74.5219" x2="602.854" y2="55.5219" stroke="#F89724"/>
<line x1="605.936" y1="53.5041" x2="667.936" y2="45.5041" stroke="#F89724"/>
<line x1="671.943" y1="44.5033" x2="732.943" y2="37.5033" stroke="#F89724"/>
<path d="M65.72 223V222.424C67.0427 221.293 68.104 220.264 68.904 219.336C69.7147 218.397 70.3067 217.533 70.68 216.744C71.0533 215.944 71.24 215.192 71.24 214.488C71.24 214.008 71.1547 213.576 70.984 213.192C70.824 212.797 70.568 212.488 70.216 212.264C69.864 212.04 69.4107 211.928 68.856 211.928C68.3547 211.928 67.88 212.061 67.432 212.328C66.9947 212.595 66.6053 212.941 66.264 213.368L65.672 212.808C66.1093 212.317 66.5893 211.917 67.112 211.608C67.6347 211.288 68.248 211.128 68.952 211.128C69.6347 211.128 70.216 211.267 70.696 211.544C71.176 211.821 71.544 212.211 71.8 212.712C72.056 213.203 72.184 213.789 72.184 214.472C72.184 215.283 71.9813 216.104 71.576 216.936C71.1813 217.768 70.6107 218.621 69.864 219.496C69.1173 220.371 68.2267 221.293 67.192 222.264C67.512 222.243 67.832 222.221 68.152 222.2C68.4827 222.179 68.8027 222.168 69.112 222.168H72.76V223H65.72ZM77.8505 223.208C77.1465 223.208 76.5332 222.989 76.0105 222.552C75.4985 222.104 75.1038 221.432 74.8265 220.536C74.5492 219.629 74.4105 218.493 74.4105 217.128C74.4105 215.773 74.5492 214.653 74.8265 213.768C75.1038 212.883 75.4985 212.221 76.0105 211.784C76.5332 211.347 77.1465 211.128 77.8505 211.128C78.5545 211.128 79.1625 211.347 79.6745 211.784C80.1865 212.221 80.5812 212.883 80.8585 213.768C81.1358 214.653 81.2745 215.773 81.2745 217.128C81.2745 218.493 81.1358 219.629 80.8585 220.536C80.5812 221.432 80.1865 222.104 79.6745 222.552C79.1625 222.989 78.5545 223.208 77.8505 223.208ZM77.8505 222.408C78.3518 222.408 78.7892 222.216 79.1625 221.832C79.5465 221.437 79.8398 220.851 80.0425 220.072C80.2452 219.283 80.3465 218.301 80.3465 217.128C80.3465 215.976 80.2452 215.011 80.0425 214.232C79.8398 213.453 79.5465 212.872 79.1625 212.488C78.7892 212.104 78.3518 211.912 77.8505 211.912C77.3492 211.912 76.9065 212.104 76.5225 212.488C76.1492 212.872 75.8558 213.453 75.6425 214.232C75.4398 215.011 75.3385 215.976 75.3385 217.128C75.3385 218.301 75.4398 219.283 75.6425 220.072C75.8558 220.851 76.1492 221.437 76.5225 221.832C76.9065 222.216 77.3492 222.408 77.8505 222.408ZM83.597 223V222.184H86.253V212.712H84.189V212.072C84.669 211.987 85.0903 211.885 85.453 211.768C85.8263 211.64 86.1517 211.496 86.429 211.336H87.181V222.184H89.613V223H83.597ZM96.1595 223V214.584C96.1595 214.317 96.1648 213.997 96.1755 213.624C96.1968 213.24 96.2182 212.915 96.2395 212.648H96.1595C96.0208 212.904 95.8715 213.171 95.7115 213.448C95.5622 213.725 95.4075 213.997 95.2475 214.264L92.0635 218.888H98.7195V219.656H90.9915V219.096L96.1435 211.336H97.0555V223H96.1595Z" fill="white"/>
<path d="M130.72 223V222.424C132.043 221.293 133.104 220.264 133.904 219.336C134.715 218.397 135.307 217.533 135.68 216.744C136.053 215.944 136.24 215.192 136.24 214.488C136.24 214.008 136.155 213.576 135.984 213.192C135.824 212.797 135.568 212.488 135.216 212.264C134.864 212.04 134.411 211.928 133.856 211.928C133.355 211.928 132.88 212.061 132.432 212.328C131.995 212.595 131.605 212.941 131.264 213.368L130.672 212.808C131.109 212.317 131.589 211.917 132.112 211.608C132.635 211.288 133.248 211.128 133.952 211.128C134.635 211.128 135.216 211.267 135.696 211.544C136.176 211.821 136.544 212.211 136.8 212.712C137.056 213.203 137.184 213.789 137.184 214.472C137.184 215.283 136.981 216.104 136.576 216.936C136.181 217.768 135.611 218.621 134.864 219.496C134.117 220.371 133.227 221.293 132.192 222.264C132.512 222.243 132.832 222.221 133.152 222.2C133.483 222.179 133.803 222.168 134.112 222.168H137.76V223H130.72ZM142.851 223.208C142.147 223.208 141.533 222.989 141.011 222.552C140.499 222.104 140.104 221.432 139.827 220.536C139.549 219.629 139.411 218.493 139.411 217.128C139.411 215.773 139.549 214.653 139.827 213.768C140.104 212.883 140.499 212.221 141.011 211.784C141.533 211.347 142.147 211.128 142.851 211.128C143.555 211.128 144.163 211.347 144.675 211.784C145.187 212.221 145.581 212.883 145.859 213.768C146.136 214.653 146.275 215.773 146.275 217.128C146.275 218.493 146.136 219.629 145.859 220.536C145.581 221.432 145.187 222.104 144.675 222.552C144.163 222.989 143.555 223.208 142.851 223.208ZM142.851 222.408C143.352 222.408 143.789 222.216 144.163 221.832C144.547 221.437 144.84 220.851 145.043 220.072C145.245 219.283 145.347 218.301 145.347 217.128C145.347 215.976 145.245 215.011 145.043 214.232C144.84 213.453 144.547 212.872 144.163 212.488C143.789 212.104 143.352 211.912 142.851 211.912C142.349 211.912 141.907 212.104 141.523 212.488C141.149 212.872 140.856 213.453 140.643 214.232C140.44 215.011 140.339 215.976 140.339 217.128C140.339 218.301 140.44 219.283 140.643 220.072C140.856 220.851 141.149 221.437 141.523 221.832C141.907 222.216 142.349 222.408 142.851 222.408ZM148.597 223V222.184H151.253V212.712H149.189V212.072C149.669 211.987 150.09 211.885 150.453 211.768C150.826 211.64 151.152 211.496 151.429 211.336H152.181V222.184H154.613V223H148.597ZM159.736 223.208C159.138 223.208 158.616 223.133 158.168 222.984C157.72 222.824 157.33 222.632 157 222.408C156.68 222.173 156.392 221.933 156.136 221.688L156.664 221.032C156.888 221.267 157.138 221.491 157.416 221.704C157.693 221.907 158.018 222.072 158.392 222.2C158.765 222.328 159.202 222.392 159.704 222.392C160.194 222.392 160.648 222.269 161.064 222.024C161.48 221.768 161.81 221.405 162.056 220.936C162.301 220.456 162.424 219.907 162.424 219.288C162.424 218.36 162.178 217.629 161.688 217.096C161.208 216.563 160.562 216.296 159.752 216.296C159.336 216.296 158.968 216.365 158.648 216.504C158.338 216.632 158.018 216.808 157.688 217.032L157.08 216.664L157.48 211.336H162.808V212.168H158.312L157.976 216.072C158.253 215.901 158.546 215.768 158.856 215.672C159.176 215.576 159.533 215.528 159.928 215.528C160.568 215.528 161.149 215.661 161.672 215.928C162.205 216.184 162.626 216.589 162.936 217.144C163.245 217.688 163.4 218.392 163.4 219.256C163.4 220.099 163.218 220.813 162.856 221.4C162.504 221.987 162.05 222.435 161.496 222.744C160.941 223.053 160.354 223.208 159.736 223.208Z" fill="white"/>
<path d="M195.72 223V222.424C197.043 221.293 198.104 220.264 198.904 219.336C199.715 218.397 200.307 217.533 200.68 216.744C201.053 215.944 201.24 215.192 201.24 214.488C201.24 214.008 201.155 213.576 200.984 213.192C200.824 212.797 200.568 212.488 200.216 212.264C199.864 212.04 199.411 211.928 198.856 211.928C198.355 211.928 197.88 212.061 197.432 212.328C196.995 212.595 196.605 212.941 196.264 213.368L195.672 212.808C196.109 212.317 196.589 211.917 197.112 211.608C197.635 211.288 198.248 211.128 198.952 211.128C199.635 211.128 200.216 211.267 200.696 211.544C201.176 211.821 201.544 212.211 201.8 212.712C202.056 213.203 202.184 213.789 202.184 214.472C202.184 215.283 201.981 216.104 201.576 216.936C201.181 217.768 200.611 218.621 199.864 219.496C199.117 220.371 198.227 221.293 197.192 222.264C197.512 222.243 197.832 222.221 198.152 222.2C198.483 222.179 198.803 222.168 199.112 222.168H202.76V223H195.72ZM207.851 223.208C207.147 223.208 206.533 222.989 206.011 222.552C205.499 222.104 205.104 221.432 204.827 220.536C204.549 219.629 204.411 218.493 204.411 217.128C204.411 215.773 204.549 214.653 204.827 213.768C205.104 212.883 205.499 212.221 206.011 211.784C206.533 211.347 207.147 211.128 207.851 211.128C208.555 211.128 209.163 211.347 209.675 211.784C210.187 212.221 210.581 212.883 210.859 213.768C211.136 214.653 211.275 215.773 211.275 217.128C211.275 218.493 211.136 219.629 210.859 220.536C210.581 221.432 210.187 222.104 209.675 222.552C209.163 222.989 208.555 223.208 207.851 223.208ZM207.851 222.408C208.352 222.408 208.789 222.216 209.163 221.832C209.547 221.437 209.84 220.851 210.043 220.072C210.245 219.283 210.347 218.301 210.347 217.128C210.347 215.976 210.245 215.011 210.043 214.232C209.84 213.453 209.547 212.872 209.163 212.488C208.789 212.104 208.352 211.912 207.851 211.912C207.349 211.912 206.907 212.104 206.523 212.488C206.149 212.872 205.856 213.453 205.643 214.232C205.44 215.011 205.339 215.976 205.339 217.128C205.339 218.301 205.44 219.283 205.643 220.072C205.856 220.851 206.149 221.437 206.523 221.832C206.907 222.216 207.349 222.408 207.851 222.408ZM213.597 223V222.184H216.253V212.712H214.189V212.072C214.669 211.987 215.09 211.885 215.453 211.768C215.826 211.64 216.152 211.496 216.429 211.336H217.181V222.184H219.613V223H213.597ZM225.376 223.208C224.81 223.208 224.298 223.085 223.84 222.84C223.381 222.595 222.986 222.232 222.656 221.752C222.336 221.261 222.085 220.664 221.904 219.96C221.722 219.256 221.632 218.44 221.632 217.512C221.632 216.328 221.744 215.331 221.968 214.52C222.202 213.699 222.512 213.043 222.896 212.552C223.29 212.051 223.738 211.688 224.24 211.464C224.752 211.24 225.28 211.128 225.824 211.128C226.368 211.128 226.842 211.235 227.248 211.448C227.653 211.651 228.005 211.917 228.304 212.248L227.744 212.84C227.498 212.552 227.21 212.328 226.88 212.168C226.549 212.008 226.202 211.928 225.84 211.928C225.253 211.928 224.709 212.104 224.208 212.456C223.706 212.808 223.301 213.395 222.992 214.216C222.693 215.027 222.544 216.125 222.544 217.512C222.544 218.493 222.645 219.357 222.848 220.104C223.061 220.84 223.376 221.411 223.792 221.816C224.218 222.221 224.752 222.424 225.391 222.424C225.818 222.424 226.197 222.296 226.528 222.04C226.858 221.784 227.12 221.432 227.312 220.984C227.504 220.536 227.6 220.035 227.6 219.48C227.6 218.915 227.514 218.413 227.344 217.976C227.184 217.528 226.928 217.181 226.576 216.936C226.234 216.691 225.786 216.568 225.232 216.568C224.826 216.568 224.378 216.701 223.888 216.968C223.408 217.235 222.938 217.688 222.48 218.328L222.464 217.432C222.73 217.101 223.018 216.819 223.328 216.584C223.637 216.339 223.962 216.152 224.304 216.024C224.656 215.896 225.002 215.832 225.344 215.832C226.005 215.832 226.57 215.971 227.04 216.248C227.52 216.515 227.888 216.92 228.144 217.464C228.4 217.997 228.528 218.669 228.528 219.48C228.528 220.205 228.384 220.851 228.096 221.416C227.808 221.971 227.424 222.408 226.944 222.728C226.464 223.048 225.941 223.208 225.376 223.208Z" fill="white"/>
<path d="M260.72 223V222.424C262.043 221.293 263.104 220.264 263.904 219.336C264.715 218.397 265.307 217.533 265.68 216.744C266.053 215.944 266.24 215.192 266.24 214.488C266.24 214.008 266.155 213.576 265.984 213.192C265.824 212.797 265.568 212.488 265.216 212.264C264.864 212.04 264.411 211.928 263.856 211.928C263.355 211.928 262.88 212.061 262.432 212.328C261.995 212.595 261.605 212.941 261.264 213.368L260.672 212.808C261.109 212.317 261.589 211.917 262.112 211.608C262.635 211.288 263.248 211.128 263.952 211.128C264.635 211.128 265.216 211.267 265.696 211.544C266.176 211.821 266.544 212.211 266.8 212.712C267.056 213.203 267.184 213.789 267.184 214.472C267.184 215.283 266.981 216.104 266.576 216.936C266.181 217.768 265.611 218.621 264.864 219.496C264.117 220.371 263.227 221.293 262.192 222.264C262.512 222.243 262.832 222.221 263.152 222.2C263.483 222.179 263.803 222.168 264.112 222.168H267.76V223H260.72ZM272.851 223.208C272.147 223.208 271.533 222.989 271.011 222.552C270.499 222.104 270.104 221.432 269.827 220.536C269.549 219.629 269.411 218.493 269.411 217.128C269.411 215.773 269.549 214.653 269.827 213.768C270.104 212.883 270.499 212.221 271.011 211.784C271.533 211.347 272.147 211.128 272.851 211.128C273.555 211.128 274.163 211.347 274.675 211.784C275.187 212.221 275.581 212.883 275.859 213.768C276.136 214.653 276.275 215.773 276.275 217.128C276.275 218.493 276.136 219.629 275.859 220.536C275.581 221.432 275.187 222.104 274.675 222.552C274.163 222.989 273.555 223.208 272.851 223.208ZM272.851 222.408C273.352 222.408 273.789 222.216 274.163 221.832C274.547 221.437 274.84 220.851 275.043 220.072C275.245 219.283 275.347 218.301 275.347 217.128C275.347 215.976 275.245 215.011 275.043 214.232C274.84 213.453 274.547 212.872 274.163 212.488C273.789 212.104 273.352 211.912 272.851 211.912C272.349 211.912 271.907 212.104 271.523 212.488C271.149 212.872 270.856 213.453 270.643 214.232C270.44 215.011 270.339 215.976 270.339 217.128C270.339 218.301 270.44 219.283 270.643 220.072C270.856 220.851 271.149 221.437 271.523 221.832C271.907 222.216 272.349 222.408 272.851 222.408ZM278.597 223V222.184H281.253V212.712H279.189V212.072C279.669 211.987 280.09 211.885 280.453 211.768C280.826 211.64 281.152 211.496 281.429 211.336H282.181V222.184H284.613V223H278.597ZM288.968 223C289.021 221.837 289.117 220.771 289.256 219.8C289.394 218.819 289.597 217.901 289.864 217.048C290.13 216.195 290.466 215.368 290.872 214.568C291.288 213.768 291.784 212.968 292.36 212.168H286.456V211.336H293.496V211.896C292.813 212.803 292.248 213.677 291.8 214.52C291.362 215.363 291.016 216.221 290.76 217.096C290.514 217.971 290.333 218.888 290.216 219.848C290.098 220.808 290.018 221.859 289.976 223H288.968Z" fill="white"/>
<path d="M325.72 223V222.424C327.043 221.293 328.104 220.264 328.904 219.336C329.715 218.397 330.307 217.533 330.68 216.744C331.053 215.944 331.24 215.192 331.24 214.488C331.24 214.008 331.155 213.576 330.984 213.192C330.824 212.797 330.568 212.488 330.216 212.264C329.864 212.04 329.411 211.928 328.856 211.928C328.355 211.928 327.88 212.061 327.432 212.328C326.995 212.595 326.605 212.941 326.264 213.368L325.672 212.808C326.109 212.317 326.589 211.917 327.112 211.608C327.635 211.288 328.248 211.128 328.952 211.128C329.635 211.128 330.216 211.267 330.696 211.544C331.176 211.821 331.544 212.211 331.8 212.712C332.056 213.203 332.184 213.789 332.184 214.472C332.184 215.283 331.981 216.104 331.576 216.936C331.181 217.768 330.611 218.621 329.864 219.496C329.117 220.371 328.227 221.293 327.192 222.264C327.512 222.243 327.832 222.221 328.152 222.2C328.483 222.179 328.803 222.168 329.112 222.168H332.76V223H325.72ZM337.851 223.208C337.147 223.208 336.533 222.989 336.011 222.552C335.499 222.104 335.104 221.432 334.827 220.536C334.549 219.629 334.411 218.493 334.411 217.128C334.411 215.773 334.549 214.653 334.827 213.768C335.104 212.883 335.499 212.221 336.011 211.784C336.533 211.347 337.147 211.128 337.851 211.128C338.555 211.128 339.163 211.347 339.675 211.784C340.187 212.221 340.581 212.883 340.859 213.768C341.136 214.653 341.275 215.773 341.275 217.128C341.275 218.493 341.136 219.629 340.859 220.536C340.581 221.432 340.187 222.104 339.675 222.552C339.163 222.989 338.555 223.208 337.851 223.208ZM337.851 222.408C338.352 222.408 338.789 222.216 339.163 221.832C339.547 221.437 339.84 220.851 340.043 220.072C340.245 219.283 340.347 218.301 340.347 217.128C340.347 215.976 340.245 215.011 340.043 214.232C339.84 213.453 339.547 212.872 339.163 212.488C338.789 212.104 338.352 211.912 337.851 211.912C337.349 211.912 336.907 212.104 336.523 212.488C336.149 212.872 335.856 213.453 335.643 214.232C335.44 215.011 335.339 215.976 335.339 217.128C335.339 218.301 335.44 219.283 335.643 220.072C335.856 220.851 336.149 221.437 336.523 221.832C336.907 222.216 337.349 222.408 337.851 222.408ZM343.597 223V222.184H346.253V212.712H344.189V212.072C344.669 211.987 345.09 211.885 345.453 211.768C345.826 211.64 346.152 211.496 346.429 211.336H347.181V222.184H349.613V223H343.597ZM355.024 223.208C354.33 223.208 353.706 223.075 353.152 222.808C352.608 222.531 352.181 222.163 351.872 221.704C351.562 221.235 351.408 220.701 351.408 220.104C351.408 219.571 351.52 219.091 351.743 218.664C351.968 218.227 352.25 217.853 352.592 217.544C352.933 217.224 353.28 216.968 353.632 216.776V216.712C353.216 216.435 352.842 216.077 352.512 215.64C352.192 215.203 352.032 214.675 352.032 214.056C352.032 213.491 352.165 212.995 352.432 212.568C352.698 212.131 353.056 211.789 353.504 211.544C353.962 211.299 354.474 211.176 355.04 211.176C355.69 211.176 356.245 211.309 356.704 211.576C357.162 211.843 357.514 212.205 357.76 212.664C358.005 213.123 358.128 213.645 358.128 214.232C358.128 214.648 358.037 215.048 357.856 215.432C357.685 215.805 357.477 216.136 357.232 216.424C356.997 216.712 356.768 216.947 356.544 217.128V217.208C356.874 217.4 357.189 217.635 357.488 217.912C357.797 218.179 358.042 218.504 358.224 218.888C358.416 219.261 358.512 219.715 358.512 220.248C358.512 220.792 358.362 221.293 358.064 221.752C357.776 222.2 357.37 222.557 356.848 222.824C356.325 223.08 355.717 223.208 355.024 223.208ZM355.856 216.872C356.314 216.488 356.666 216.077 356.912 215.64C357.157 215.203 357.28 214.744 357.28 214.264C357.28 213.837 357.189 213.448 357.008 213.096C356.837 212.744 356.581 212.461 356.24 212.248C355.909 212.035 355.504 211.928 355.024 211.928C354.416 211.928 353.914 212.131 353.52 212.536C353.125 212.931 352.928 213.437 352.928 214.056C352.928 214.579 353.066 215.016 353.344 215.368C353.632 215.709 354 215.997 354.448 216.232C354.906 216.456 355.376 216.669 355.856 216.872ZM355.04 222.456C355.552 222.456 356 222.36 356.384 222.168C356.768 221.965 357.061 221.699 357.264 221.368C357.477 221.027 357.584 220.648 357.584 220.232C357.584 219.784 357.488 219.405 357.296 219.096C357.104 218.776 356.848 218.504 356.528 218.28C356.218 218.045 355.861 217.837 355.456 217.656C355.05 217.475 354.634 217.299 354.208 217.128C353.653 217.459 353.194 217.869 352.832 218.36C352.469 218.851 352.288 219.416 352.288 220.056C352.288 220.504 352.405 220.909 352.64 221.272C352.874 221.635 353.2 221.923 353.616 222.136C354.042 222.349 354.517 222.456 355.04 222.456Z" fill="white"/>
<path d="M390.72 223V222.424C392.043 221.293 393.104 220.264 393.904 219.336C394.715 218.397 395.307 217.533 395.68 216.744C396.053 215.944 396.24 215.192 396.24 214.488C396.24 214.008 396.155 213.576 395.984 213.192C395.824 212.797 395.568 212.488 395.216 212.264C394.864 212.04 394.411 211.928 393.856 211.928C393.355 211.928 392.88 212.061 392.432 212.328C391.995 212.595 391.605 212.941 391.264 213.368L390.672 212.808C391.109 212.317 391.589 211.917 392.112 211.608C392.635 211.288 393.248 211.128 393.952 211.128C394.635 211.128 395.216 211.267 395.696 211.544C396.176 211.821 396.544 212.211 396.8 212.712C397.056 213.203 397.184 213.789 397.184 214.472C397.184 215.283 396.981 216.104 396.576 216.936C396.181 217.768 395.611 218.621 394.864 219.496C394.117 220.371 393.227 221.293 392.192 222.264C392.512 222.243 392.832 222.221 393.152 222.2C393.483 222.179 393.803 222.168 394.112 222.168H397.76V223H390.72ZM402.851 223.208C402.147 223.208 401.533 222.989 401.011 222.552C400.499 222.104 400.104 221.432 399.827 220.536C399.549 219.629 399.411 218.493 399.411 217.128C399.411 215.773 399.549 214.653 399.827 213.768C400.104 212.883 400.499 212.221 401.011 211.784C401.533 211.347 402.147 211.128 402.851 211.128C403.555 211.128 404.163 211.347 404.675 211.784C405.187 212.221 405.581 212.883 405.859 213.768C406.136 214.653 406.275 215.773 406.275 217.128C406.275 218.493 406.136 219.629 405.859 220.536C405.581 221.432 405.187 222.104 404.675 222.552C404.163 222.989 403.555 223.208 402.851 223.208ZM402.851 222.408C403.352 222.408 403.789 222.216 404.163 221.832C404.547 221.437 404.84 220.851 405.043 220.072C405.245 219.283 405.347 218.301 405.347 217.128C405.347 215.976 405.245 215.011 405.043 214.232C404.84 213.453 404.547 212.872 404.163 212.488C403.789 212.104 403.352 211.912 402.851 211.912C402.349 211.912 401.907 212.104 401.523 212.488C401.149 212.872 400.856 213.453 400.643 214.232C400.44 215.011 400.339 215.976 400.339 217.128C400.339 218.301 400.44 219.283 400.643 220.072C400.856 220.851 401.149 221.437 401.523 221.832C401.907 222.216 402.349 222.408 402.851 222.408ZM408.597 223V222.184H411.253V212.712H409.189V212.072C409.669 211.987 410.09 211.885 410.453 211.768C410.826 211.64 411.152 211.496 411.429 211.336H412.181V222.184H414.613V223H408.597ZM419.24 223.208C418.664 223.208 418.168 223.107 417.752 222.904C417.346 222.691 416.984 222.419 416.664 222.088L417.224 221.48C417.49 221.779 417.794 222.008 418.136 222.168C418.488 222.317 418.861 222.392 419.256 222.392C419.672 222.392 420.072 222.296 420.456 222.104C420.84 221.901 421.176 221.571 421.464 221.112C421.762 220.653 421.997 220.051 422.168 219.304C422.338 218.547 422.424 217.619 422.424 216.52C422.424 215.592 422.317 214.781 422.104 214.088C421.901 213.384 421.586 212.845 421.16 212.472C420.744 212.088 420.21 211.896 419.56 211.896C419.154 211.896 418.781 212.024 418.44 212.28C418.109 212.536 417.842 212.888 417.64 213.336C417.448 213.784 417.352 214.291 417.352 214.856C417.352 215.411 417.432 215.912 417.592 216.36C417.762 216.797 418.018 217.144 418.36 217.4C418.712 217.656 419.16 217.784 419.704 217.784C420.13 217.784 420.584 217.645 421.064 217.368C421.544 217.08 422.008 216.621 422.456 215.992L422.488 216.904C422.232 217.213 421.949 217.491 421.64 217.736C421.33 217.981 421 218.173 420.648 218.312C420.306 218.451 419.949 218.52 419.576 218.52C418.925 218.52 418.365 218.381 417.896 218.104C417.426 217.816 417.064 217.4 416.808 216.856C416.552 216.312 416.424 215.645 416.424 214.856C416.424 214.131 416.568 213.485 416.856 212.92C417.154 212.355 417.538 211.917 418.008 211.608C418.488 211.288 419.016 211.128 419.592 211.128C420.157 211.128 420.669 211.245 421.128 211.48C421.586 211.715 421.976 212.061 422.296 212.52C422.626 212.968 422.882 213.528 423.064 214.2C423.245 214.872 423.336 215.645 423.336 216.52C423.336 217.757 423.224 218.803 423 219.656C422.776 220.509 422.466 221.197 422.072 221.72C421.688 222.243 421.25 222.621 420.76 222.856C420.28 223.091 419.773 223.208 419.24 223.208Z" fill="white"/>
<path d="M455.72 223V222.424C457.043 221.293 458.104 220.264 458.904 219.336C459.715 218.397 460.307 217.533 460.68 216.744C461.053 215.944 461.24 215.192 461.24 214.488C461.24 214.008 461.155 213.576 460.984 213.192C460.824 212.797 460.568 212.488 460.216 212.264C459.864 212.04 459.411 211.928 458.856 211.928C458.355 211.928 457.88 212.061 457.432 212.328C456.995 212.595 456.605 212.941 456.264 213.368L455.672 212.808C456.109 212.317 456.589 211.917 457.112 211.608C457.635 211.288 458.248 211.128 458.952 211.128C459.635 211.128 460.216 211.267 460.696 211.544C461.176 211.821 461.544 212.211 461.8 212.712C462.056 213.203 462.184 213.789 462.184 214.472C462.184 215.283 461.981 216.104 461.576 216.936C461.181 217.768 460.611 218.621 459.864 219.496C459.117 220.371 458.227 221.293 457.192 222.264C457.512 222.243 457.832 222.221 458.152 222.2C458.483 222.179 458.803 222.168 459.112 222.168H462.76V223H455.72ZM467.851 223.208C467.147 223.208 466.533 222.989 466.011 222.552C465.499 222.104 465.104 221.432 464.827 220.536C464.549 219.629 464.411 218.493 464.411 217.128C464.411 215.773 464.549 214.653 464.827 213.768C465.104 212.883 465.499 212.221 466.011 211.784C466.533 211.347 467.147 211.128 467.851 211.128C468.555 211.128 469.163 211.347 469.675 211.784C470.187 212.221 470.581 212.883 470.859 213.768C471.136 214.653 471.275 215.773 471.275 217.128C471.275 218.493 471.136 219.629 470.859 220.536C470.581 221.432 470.187 222.104 469.675 222.552C469.163 222.989 468.555 223.208 467.851 223.208ZM467.851 222.408C468.352 222.408 468.789 222.216 469.163 221.832C469.547 221.437 469.84 220.851 470.043 220.072C470.245 219.283 470.347 218.301 470.347 217.128C470.347 215.976 470.245 215.011 470.043 214.232C469.84 213.453 469.547 212.872 469.163 212.488C468.789 212.104 468.352 211.912 467.851 211.912C467.349 211.912 466.907 212.104 466.523 212.488C466.149 212.872 465.856 213.453 465.643 214.232C465.44 215.011 465.339 215.976 465.339 217.128C465.339 218.301 465.44 219.283 465.643 220.072C465.856 220.851 466.149 221.437 466.523 221.832C466.907 222.216 467.349 222.408 467.851 222.408ZM472.845 223V222.424C474.168 221.293 475.229 220.264 476.029 219.336C476.84 218.397 477.432 217.533 477.805 216.744C478.178 215.944 478.365 215.192 478.365 214.488C478.365 214.008 478.28 213.576 478.109 213.192C477.949 212.797 477.693 212.488 477.341 212.264C476.989 212.04 476.536 211.928 475.981 211.928C475.48 211.928 475.005 212.061 474.557 212.328C474.12 212.595 473.73 212.941 473.389 213.368L472.797 212.808C473.234 212.317 473.714 211.917 474.237 211.608C474.76 211.288 475.373 211.128 476.077 211.128C476.76 211.128 477.341 211.267 477.821 211.544C478.301 211.821 478.669 212.211 478.925 212.712C479.181 213.203 479.309 213.789 479.309 214.472C479.309 215.283 479.106 216.104 478.701 216.936C478.306 217.768 477.736 218.621 476.989 219.496C476.242 220.371 475.352 221.293 474.317 222.264C474.637 222.243 474.957 222.221 475.277 222.2C475.608 222.179 475.928 222.168 476.237 222.168H479.885V223H472.845ZM484.976 223.208C484.272 223.208 483.658 222.989 483.136 222.552C482.624 222.104 482.229 221.432 481.952 220.536C481.674 219.629 481.536 218.493 481.536 217.128C481.536 215.773 481.674 214.653 481.952 213.768C482.229 212.883 482.624 212.221 483.136 211.784C483.658 211.347 484.272 211.128 484.976 211.128C485.68 211.128 486.288 211.347 486.8 211.784C487.312 212.221 487.706 212.883 487.984 213.768C488.261 214.653 488.4 215.773 488.4 217.128C488.4 218.493 488.261 219.629 487.984 220.536C487.706 221.432 487.312 222.104 486.8 222.552C486.288 222.989 485.68 223.208 484.976 223.208ZM484.976 222.408C485.477 222.408 485.914 222.216 486.288 221.832C486.672 221.437 486.965 220.851 487.168 220.072C487.37 219.283 487.472 218.301 487.472 217.128C487.472 215.976 487.37 215.011 487.168 214.232C486.965 213.453 486.672 212.872 486.288 212.488C485.914 212.104 485.477 211.912 484.976 211.912C484.474 211.912 484.032 212.104 483.648 212.488C483.274 212.872 482.981 213.453 482.768 214.232C482.565 215.011 482.464 215.976 482.464 217.128C482.464 218.301 482.565 219.283 482.768 220.072C482.981 220.851 483.274 221.437 483.648 221.832C484.032 222.216 484.474 222.408 484.976 222.408Z" fill="white"/>
<path d="M520.72 223V222.424C522.043 221.293 523.104 220.264 523.904 219.336C524.715 218.397 525.307 217.533 525.68 216.744C526.053 215.944 526.24 215.192 526.24 214.488C526.24 214.008 526.155 213.576 525.984 213.192C525.824 212.797 525.568 212.488 525.216 212.264C524.864 212.04 524.411 211.928 523.856 211.928C523.355 211.928 522.88 212.061 522.432 212.328C521.995 212.595 521.605 212.941 521.264 213.368L520.672 212.808C521.109 212.317 521.589 211.917 522.112 211.608C522.635 211.288 523.248 211.128 523.952 211.128C524.635 211.128 525.216 211.267 525.696 211.544C526.176 211.821 526.544 212.211 526.8 212.712C527.056 213.203 527.184 213.789 527.184 214.472C527.184 215.283 526.981 216.104 526.576 216.936C526.181 217.768 525.611 218.621 524.864 219.496C524.117 220.371 523.227 221.293 522.192 222.264C522.512 222.243 522.832 222.221 523.152 222.2C523.483 222.179 523.803 222.168 524.112 222.168H527.76V223H520.72ZM532.851 223.208C532.147 223.208 531.533 222.989 531.011 222.552C530.499 222.104 530.104 221.432 529.827 220.536C529.549 219.629 529.411 218.493 529.411 217.128C529.411 215.773 529.549 214.653 529.827 213.768C530.104 212.883 530.499 212.221 531.011 211.784C531.533 211.347 532.147 211.128 532.851 211.128C533.555 211.128 534.163 211.347 534.675 211.784C535.187 212.221 535.581 212.883 535.859 213.768C536.136 214.653 536.275 215.773 536.275 217.128C536.275 218.493 536.136 219.629 535.859 220.536C535.581 221.432 535.187 222.104 534.675 222.552C534.163 222.989 533.555 223.208 532.851 223.208ZM532.851 222.408C533.352 222.408 533.789 222.216 534.163 221.832C534.547 221.437 534.84 220.851 535.043 220.072C535.245 219.283 535.347 218.301 535.347 217.128C535.347 215.976 535.245 215.011 535.043 214.232C534.84 213.453 534.547 212.872 534.163 212.488C533.789 212.104 533.352 211.912 532.851 211.912C532.349 211.912 531.907 212.104 531.523 212.488C531.149 212.872 530.856 213.453 530.643 214.232C530.44 215.011 530.339 215.976 530.339 217.128C530.339 218.301 530.44 219.283 530.643 220.072C530.856 220.851 531.149 221.437 531.523 221.832C531.907 222.216 532.349 222.408 532.851 222.408ZM537.845 223V222.424C539.168 221.293 540.229 220.264 541.029 219.336C541.84 218.397 542.432 217.533 542.805 216.744C543.178 215.944 543.365 215.192 543.365 214.488C543.365 214.008 543.28 213.576 543.109 213.192C542.949 212.797 542.693 212.488 542.341 212.264C541.989 212.04 541.536 211.928 540.981 211.928C540.48 211.928 540.005 212.061 539.557 212.328C539.12 212.595 538.73 212.941 538.389 213.368L537.797 212.808C538.234 212.317 538.714 211.917 539.237 211.608C539.76 211.288 540.373 211.128 541.077 211.128C541.76 211.128 542.341 211.267 542.821 211.544C543.301 211.821 543.669 212.211 543.925 212.712C544.181 213.203 544.309 213.789 544.309 214.472C544.309 215.283 544.106 216.104 543.701 216.936C543.306 217.768 542.736 218.621 541.989 219.496C541.242 220.371 540.352 221.293 539.317 222.264C539.637 222.243 539.957 222.221 540.277 222.2C540.608 222.179 540.928 222.168 541.237 222.168H544.885V223H537.845ZM547.16 223V222.184H549.816V212.712H547.752V212.072C548.232 211.987 548.653 211.885 549.016 211.768C549.389 211.64 549.714 211.496 549.992 211.336H550.744V222.184H553.176V223H547.16Z" fill="white"/>
<path d="M585.72 223V222.424C587.043 221.293 588.104 220.264 588.904 219.336C589.715 218.397 590.307 217.533 590.68 216.744C591.053 215.944 591.24 215.192 591.24 214.488C591.24 214.008 591.155 213.576 590.984 213.192C590.824 212.797 590.568 212.488 590.216 212.264C589.864 212.04 589.411 211.928 588.856 211.928C588.355 211.928 587.88 212.061 587.432 212.328C586.995 212.595 586.605 212.941 586.264 213.368L585.672 212.808C586.109 212.317 586.589 211.917 587.112 211.608C587.635 211.288 588.248 211.128 588.952 211.128C589.635 211.128 590.216 211.267 590.696 211.544C591.176 211.821 591.544 212.211 591.8 212.712C592.056 213.203 592.184 213.789 592.184 214.472C592.184 215.283 591.981 216.104 591.576 216.936C591.181 217.768 590.611 218.621 589.864 219.496C589.117 220.371 588.227 221.293 587.192 222.264C587.512 222.243 587.832 222.221 588.152 222.2C588.483 222.179 588.803 222.168 589.112 222.168H592.76V223H585.72ZM597.851 223.208C597.147 223.208 596.533 222.989 596.011 222.552C595.499 222.104 595.104 221.432 594.827 220.536C594.549 219.629 594.411 218.493 594.411 217.128C594.411 215.773 594.549 214.653 594.827 213.768C595.104 212.883 595.499 212.221 596.011 211.784C596.533 211.347 597.147 211.128 597.851 211.128C598.555 211.128 599.163 211.347 599.675 211.784C600.187 212.221 600.581 212.883 600.859 213.768C601.136 214.653 601.275 215.773 601.275 217.128C601.275 218.493 601.136 219.629 600.859 220.536C600.581 221.432 600.187 222.104 599.675 222.552C599.163 222.989 598.555 223.208 597.851 223.208ZM597.851 222.408C598.352 222.408 598.789 222.216 599.163 221.832C599.547 221.437 599.84 220.851 600.043 220.072C600.245 219.283 600.347 218.301 600.347 217.128C600.347 215.976 600.245 215.011 600.043 214.232C599.84 213.453 599.547 212.872 599.163 212.488C598.789 212.104 598.352 211.912 597.851 211.912C597.349 211.912 596.907 212.104 596.523 212.488C596.149 212.872 595.856 213.453 595.643 214.232C595.44 215.011 595.339 215.976 595.339 217.128C595.339 218.301 595.44 219.283 595.643 220.072C595.856 220.851 596.149 221.437 596.523 221.832C596.907 222.216 597.349 222.408 597.851 222.408ZM602.845 223V222.424C604.168 221.293 605.229 220.264 606.029 219.336C606.84 218.397 607.432 217.533 607.805 216.744C608.178 215.944 608.365 215.192 608.365 214.488C608.365 214.008 608.28 213.576 608.109 213.192C607.949 212.797 607.693 212.488 607.341 212.264C606.989 212.04 606.536 211.928 605.981 211.928C605.48 211.928 605.005 212.061 604.557 212.328C604.12 212.595 603.73 212.941 603.389 213.368L602.797 212.808C603.234 212.317 603.714 211.917 604.237 211.608C604.76 211.288 605.373 211.128 606.077 211.128C606.76 211.128 607.341 211.267 607.821 211.544C608.301 211.821 608.669 212.211 608.925 212.712C609.181 213.203 609.309 213.789 609.309 214.472C609.309 215.283 609.106 216.104 608.701 216.936C608.306 217.768 607.736 218.621 606.989 219.496C606.242 220.371 605.352 221.293 604.317 222.264C604.637 222.243 604.957 222.221 605.277 222.2C605.608 222.179 605.928 222.168 606.237 222.168H609.885V223H602.845ZM611.408 223V222.424C612.73 221.293 613.792 220.264 614.592 219.336C615.402 218.397 615.994 217.533 616.368 216.744C616.741 215.944 616.928 215.192 616.928 214.488C616.928 214.008 616.842 213.576 616.672 213.192C616.512 212.797 616.256 212.488 615.904 212.264C615.552 212.04 615.098 211.928 614.544 211.928C614.042 211.928 613.568 212.061 613.12 212.328C612.682 212.595 612.293 212.941 611.952 213.368L611.36 212.808C611.797 212.317 612.277 211.917 612.799 211.608C613.322 211.288 613.936 211.128 614.64 211.128C615.322 211.128 615.904 211.267 616.384 211.544C616.864 211.821 617.232 212.211 617.488 212.712C617.744 213.203 617.872 213.789 617.872 214.472C617.872 215.283 617.669 216.104 617.264 216.936C616.869 217.768 616.298 218.621 615.552 219.496C614.805 220.371 613.914 221.293 612.88 222.264C613.2 222.243 613.52 222.221 613.84 222.2C614.17 222.179 614.49 222.168 614.799 222.168H618.448V223H611.408Z" fill="white"/>
<path d="M650.72 223V222.424C652.043 221.293 653.104 220.264 653.904 219.336C654.715 218.397 655.307 217.533 655.68 216.744C656.053 215.944 656.24 215.192 656.24 214.488C656.24 214.008 656.155 213.576 655.984 213.192C655.824 212.797 655.568 212.488 655.216 212.264C654.864 212.04 654.411 211.928 653.856 211.928C653.355 211.928 652.88 212.061 652.432 212.328C651.995 212.595 651.605 212.941 651.264 213.368L650.672 212.808C651.109 212.317 651.589 211.917 652.112 211.608C652.635 211.288 653.248 211.128 653.952 211.128C654.635 211.128 655.216 211.267 655.696 211.544C656.176 211.821 656.544 212.211 656.8 212.712C657.056 213.203 657.184 213.789 657.184 214.472C657.184 215.283 656.981 216.104 656.576 216.936C656.181 217.768 655.611 218.621 654.864 219.496C654.117 220.371 653.227 221.293 652.192 222.264C652.512 222.243 652.832 222.221 653.152 222.2C653.483 222.179 653.803 222.168 654.112 222.168H657.76V223H650.72ZM662.851 223.208C662.147 223.208 661.533 222.989 661.011 222.552C660.499 222.104 660.104 221.432 659.827 220.536C659.549 219.629 659.411 218.493 659.411 217.128C659.411 215.773 659.549 214.653 659.827 213.768C660.104 212.883 660.499 212.221 661.011 211.784C661.533 211.347 662.147 211.128 662.851 211.128C663.555 211.128 664.163 211.347 664.675 211.784C665.187 212.221 665.581 212.883 665.859 213.768C666.136 214.653 666.275 215.773 666.275 217.128C666.275 218.493 666.136 219.629 665.859 220.536C665.581 221.432 665.187 222.104 664.675 222.552C664.163 222.989 663.555 223.208 662.851 223.208ZM662.851 222.408C663.352 222.408 663.789 222.216 664.163 221.832C664.547 221.437 664.84 220.851 665.043 220.072C665.245 219.283 665.347 218.301 665.347 217.128C665.347 215.976 665.245 215.011 665.043 214.232C664.84 213.453 664.547 212.872 664.163 212.488C663.789 212.104 663.352 211.912 662.851 211.912C662.349 211.912 661.907 212.104 661.523 212.488C661.149 212.872 660.856 213.453 660.643 214.232C660.44 215.011 660.339 215.976 660.339 217.128C660.339 218.301 660.44 219.283 660.643 220.072C660.856 220.851 661.149 221.437 661.523 221.832C661.907 222.216 662.349 222.408 662.851 222.408ZM667.845 223V222.424C669.168 221.293 670.229 220.264 671.029 219.336C671.84 218.397 672.432 217.533 672.805 216.744C673.178 215.944 673.365 215.192 673.365 214.488C673.365 214.008 673.28 213.576 673.109 213.192C672.949 212.797 672.693 212.488 672.341 212.264C671.989 212.04 671.536 211.928 670.981 211.928C670.48 211.928 670.005 212.061 669.557 212.328C669.12 212.595 668.73 212.941 668.389 213.368L667.797 212.808C668.234 212.317 668.714 211.917 669.237 211.608C669.76 211.288 670.373 211.128 671.077 211.128C671.76 211.128 672.341 211.267 672.821 211.544C673.301 211.821 673.669 212.211 673.925 212.712C674.181 213.203 674.309 213.789 674.309 214.472C674.309 215.283 674.106 216.104 673.701 216.936C673.306 217.768 672.736 218.621 671.989 219.496C671.242 220.371 670.352 221.293 669.317 222.264C669.637 222.243 669.957 222.221 670.277 222.2C670.608 222.179 670.928 222.168 671.237 222.168H674.885V223H667.845ZM679.799 223.208C679.202 223.208 678.68 223.133 678.232 222.984C677.784 222.824 677.389 222.621 677.048 222.376C676.717 222.131 676.434 221.875 676.2 221.608L676.712 220.984C677.053 221.336 677.464 221.661 677.944 221.96C678.424 222.248 679.037 222.392 679.784 222.392C680.296 222.392 680.744 222.291 681.128 222.088C681.512 221.885 681.816 221.597 682.04 221.224C682.264 220.851 682.376 220.413 682.376 219.912C682.376 219.389 682.242 218.931 681.976 218.536C681.72 218.141 681.309 217.837 680.744 217.624C680.178 217.411 679.432 217.304 678.504 217.304V216.504C679.368 216.504 680.045 216.392 680.536 216.168C681.037 215.944 681.394 215.645 681.608 215.272C681.832 214.888 681.944 214.461 681.944 213.992C681.944 213.373 681.746 212.877 681.352 212.504C680.957 212.12 680.424 211.928 679.752 211.928C679.24 211.928 678.765 212.045 678.328 212.28C677.89 212.504 677.517 212.787 677.208 213.128L676.664 212.488C677.069 212.115 677.522 211.795 678.024 211.528C678.525 211.261 679.106 211.128 679.768 211.128C680.365 211.128 680.904 211.24 681.384 211.464C681.864 211.688 682.242 212.008 682.52 212.424C682.797 212.84 682.936 213.347 682.936 213.944C682.936 214.701 682.733 215.32 682.328 215.8C681.922 216.28 681.41 216.621 680.792 216.824V216.904C681.25 217 681.672 217.181 682.056 217.448C682.45 217.715 682.76 218.056 682.984 218.472C683.218 218.888 683.336 219.368 683.336 219.912C683.336 220.584 683.176 221.171 682.856 221.672C682.546 222.163 682.125 222.541 681.592 222.808C681.058 223.075 680.461 223.208 679.799 223.208Z" fill="white"/>
<path d="M715.72 223V222.424C717.043 221.293 718.104 220.264 718.904 219.336C719.715 218.397 720.307 217.533 720.68 216.744C721.053 215.944 721.24 215.192 721.24 214.488C721.24 214.008 721.155 213.576 720.984 213.192C720.824 212.797 720.568 212.488 720.216 212.264C719.864 212.04 719.411 211.928 718.856 211.928C718.355 211.928 717.88 212.061 717.432 212.328C716.995 212.595 716.605 212.941 716.264 213.368L715.672 212.808C716.109 212.317 716.589 211.917 717.112 211.608C717.635 211.288 718.248 211.128 718.952 211.128C719.635 211.128 720.216 211.267 720.696 211.544C721.176 211.821 721.544 212.211 721.8 212.712C722.056 213.203 722.184 213.789 722.184 214.472C722.184 215.283 721.981 216.104 721.576 216.936C721.181 217.768 720.611 218.621 719.864 219.496C719.117 220.371 718.227 221.293 717.192 222.264C717.512 222.243 717.832 222.221 718.152 222.2C718.483 222.179 718.803 222.168 719.112 222.168H722.76V223H715.72ZM727.851 223.208C727.147 223.208 726.533 222.989 726.011 222.552C725.499 222.104 725.104 221.432 724.827 220.536C724.549 219.629 724.411 218.493 724.411 217.128C724.411 215.773 724.549 214.653 724.827 213.768C725.104 212.883 725.499 212.221 726.011 211.784C726.533 211.347 727.147 211.128 727.851 211.128C728.555 211.128 729.163 211.347 729.675 211.784C730.187 212.221 730.581 212.883 730.859 213.768C731.136 214.653 731.275 215.773 731.275 217.128C731.275 218.493 731.136 219.629 730.859 220.536C730.581 221.432 730.187 222.104 729.675 222.552C729.163 222.989 728.555 223.208 727.851 223.208ZM727.851 222.408C728.352 222.408 728.789 222.216 729.163 221.832C729.547 221.437 729.84 220.851 730.043 220.072C730.245 219.283 730.347 218.301 730.347 217.128C730.347 215.976 730.245 215.011 730.043 214.232C729.84 213.453 729.547 212.872 729.163 212.488C728.789 212.104 728.352 211.912 727.851 211.912C727.349 211.912 726.907 212.104 726.523 212.488C726.149 212.872 725.856 213.453 725.643 214.232C725.44 215.011 725.339 215.976 725.339 217.128C725.339 218.301 725.44 219.283 725.643 220.072C725.856 220.851 726.149 221.437 726.523 221.832C726.907 222.216 727.349 222.408 727.851 222.408ZM732.845 223V222.424C734.168 221.293 735.229 220.264 736.029 219.336C736.84 218.397 737.432 217.533 737.805 216.744C738.178 215.944 738.365 215.192 738.365 214.488C738.365 214.008 738.28 213.576 738.109 213.192C737.949 212.797 737.693 212.488 737.341 212.264C736.989 212.04 736.536 211.928 735.981 211.928C735.48 211.928 735.005 212.061 734.557 212.328C734.12 212.595 733.73 212.941 733.389 213.368L732.797 212.808C733.234 212.317 733.714 211.917 734.237 211.608C734.76 211.288 735.373 211.128 736.077 211.128C736.76 211.128 737.341 211.267 737.821 211.544C738.301 211.821 738.669 212.211 738.925 212.712C739.181 213.203 739.309 213.789 739.309 214.472C739.309 215.283 739.106 216.104 738.701 216.936C738.306 217.768 737.736 218.621 736.989 219.496C736.242 220.371 735.352 221.293 734.317 222.264C734.637 222.243 734.957 222.221 735.277 222.2C735.608 222.179 735.928 222.168 736.237 222.168H739.885V223H732.845ZM746.16 223V214.584C746.16 214.317 746.165 213.997 746.176 213.624C746.197 213.24 746.218 212.915 746.24 212.648H746.16C746.021 212.904 745.872 213.171 745.712 213.448C745.562 213.725 745.408 213.997 745.248 214.264L742.064 218.888H748.72V219.656H740.992V219.096L746.144 211.336H747.056V223H746.16Z" fill="white"/>
</svg>
